<svg xmlns="http://www.w3.org/2000/svg" viewBox="0 0 168.008 37.531"><defs><style>.cls-1,.cls-5,.cls-6,.cls-7,.cls-8{fill:#114779;}.cls-2{fill:#fff;}.cls-3{fill:#245384;}.cls-4{fill:none;stroke:#245384;stroke-width:1.128px;}.cls-4,.cls-5,.cls-6,.cls-7,.cls-8{stroke-miterlimit:10;}.cls-5,.cls-6,.cls-7,.cls-8{stroke:#fff;}.cls-5{stroke-width:0.196px;}.cls-6{stroke-width:0.139px;}.cls-7{stroke-width:0.028px;}.cls-8{stroke-width:0.159px;}.cls-9{fill:#488cc5;}.cls-10{fill:#85a2b6;}.cls-11{fill:#85a1b5;}.cls-12{fill:#86a2b6;}.cls-13{fill:#245c8d;}.cls-14{fill:#498ec7;}.cls-15{fill:#86a3b5;}.cls-16{fill:#498cc7;}.cls-17{fill:#488dc7;}.cls-18{fill:#255d8d;}.cls-19{fill:#255f8e;}.cls-20{fill:#4b8ec6;}.cls-21{fill:#fafdff;}.cls-22{fill:#f6f9fb;}.cls-23{fill:#f2f6f8;}</style></defs><title>amrLogo_1</title><g id="Layer_2" data-name="Layer 2"><g id="Layer_1-2" data-name="Layer 1"><rect class="cls-1" x="8.927" y="20.511" width="30.893" height="0.98"/><rect class="cls-1" x="23.481" y="12.006" width="12.205" height="8.11"/><rect class="cls-1" x="35.981" y="12.012" width="3.491" height="8.111"/><ellipse class="cls-2" cx="30.55" cy="9.522" rx="9.409" ry="9.522"/><circle class="cls-3" cx="30.55" cy="9.409" r="9.409"/><circle class="cls-2" cx="28.009" cy="9.076" r="7.532"/><circle class="cls-4" cx="27.685" cy="8.972" r="6.696"/><rect class="cls-5" x="10.578" y="12.106" width="19.482" height="0.882"/><rect class="cls-6" x="10.616" y="13.07" width="9.851" height="0.882"/><rect class="cls-6" x="10.647" y="14.071" width="9.851" height="0.882"/><rect class="cls-6" x="10.647" y="15.115" width="9.851" height="0.882"/><rect class="cls-6" x="10.647" y="16.139" width="9.851" height="0.882"/><rect class="cls-6" x="10.647" y="17.203" width="9.851" height="0.882"/><rect class="cls-6" x="10.647" y="18.315" width="9.851" height="0.882"/><rect class="cls-1" x="18.412" y="8.561" width="7.748" height="3.459" rx="1.729"/><circle class="cls-1" cx="28.272" cy="10.199" r="1.887"/><path class="cls-7" d="M19.473,11.217l-5.232.812a.992.992,0,0,1-1.133-.829h0a.992.992,0,0,1,.829-1.133L18.962,9.3a1.187,1.187,0,0,1,1.34.788h0A.992.992,0,0,1,19.473,11.217Z" transform="translate(-2.869)"/><path class="cls-1" d="M22.711,11.3l-.824.243L17.643,11.3l1.341-2,2.047-.085,1.782-.1V11.2A.1.1,0,0,1,22.711,11.3Z" transform="translate(-2.869)"/><path class="cls-8" d="M24.392,10.211h3.252a.684.684,0,0,1,.684.684v.355a.432.432,0,0,1-.433.432H24.218a.7.7,0,0,1-.461-.174l-2.824-2.49s-.278-.2.119-.556.318-.477.835-.278A19.936,19.936,0,0,1,24.392,10.211Z" transform="translate(-2.869)"/><rect class="cls-1" x="8.927" y="19.159" width="21.133" height="0.968"/><path class="cls-9" d="M92.678,8.239V.119c.118-.006.2-.015.29-.014q2.946.008,5.891.017c1.749.009,3.5-.014,5.247.045a8.393,8.393,0,0,1,6.066,2.577,9.021,9.021,0,0,1,2.41,5.067,9.689,9.689,0,0,1-1.229,6.313,14.871,14.871,0,0,1-1,1.347l3.986,5.891c-.108.011-.181.023-.253.023q-4.044,0-8.087.007a.443.443,0,0,1-.4-.239q-2.286-3.316-4.579-6.627c-.058-.084-.117-.166-.221-.313-.035,2.434-.069,4.784-.1,7.153H92.62V13.5a1.468,1.468,0,0,1,.159-.02q3.894-.014,7.789-.023c.793,0,1.586.03,2.379.026a2.67,2.67,0,0,0,2.672-2.041,2.642,2.642,0,0,0-2.488-3.2c-3.381-.01-6.762,0-10.144,0Z" transform="translate(-2.869)"/><path class="cls-10" d="M90.106,8.138H84.932c-.424,0-.522.1-.544.593h.318c1.767,0,3.535,0,5.3,0,.194,0,.293.043.322.25a6.7,6.7,0,0,0,.162.667H84.483c-.468,0-.535.067-.578.593h.317c2.044,0,4.088,0,6.132-.005.217,0,.321.05.357.278.046.286.135.565.215.884H83.983c-.555,0-.555,0-.66.607h.319q3.575,0,7.149,0c.214,0,.331.043.36.273.025.2.087.4.141.632h-.338c-2.5,0-5,.007-7.5-.009a.466.466,0,0,0-.537.382c-.716,2.147-1.453,4.287-2.183,6.429-.178.523-.364,1.043-.532,1.57a.267.267,0,0,1-.3.218q-3.507-.008-7.015,0a.257.257,0,0,1-.3-.191q-1.354-3.8-2.722-7.6c-.021-.057-.029-.117-.05-.2h.31c2,0,4,0,6,0,.209,0,.285-.062.338-.266q1.676-6.45,3.364-12.9a.309.309,0,0,1,.36-.282q3.843.014,7.685,0A.26.26,0,0,1,88.176.3q.945,3.838,1.9,7.674C90.086,8.013,90.091,8.056,90.106,8.138Z" transform="translate(-2.869)"/><path class="cls-1" d="M64.56,12.917c-.106,0-.213.012-.32.012H56c-.478,1.124-.966,2.27-1.453,3.416q-1.028,2.421-2.05,4.845a.336.336,0,0,1-.371.244c-2.053-.008-4.105-.005-6.158-.005h-.266c.028-.094.045-.168.072-.239Q49.684,10.762,53.587.331a.309.309,0,0,1,.344-.239Q57.3.1,60.677.092A.279.279,0,0,1,61,.342q1.074,3.819,2.166,7.631c.012.043.031.083.046.124l.005.146H55.346a1.731,1.731,0,0,1,.093.267c.042.286.2.353.48.345.749-.022,1.5-.009,2.247-.008l5.268.009.21.882H55.621c.118.6.118.6.67.6l7.572.006.261,1.1H55.836c.126.6.126.6.673.6l7.836.006Z" transform="translate(-2.869)"/><path class="cls-10" d="M64.124,11.444l-.261-1.1-.219-.6-.21-.883-.216-.612L63.213,8.1c.145-.576.3-1.15.431-1.729q.708-3.043,1.4-6.089c.04-.173.122-.219.294-.219q3.748.008,7.5,0c.155,0,.243.032.284.2q.953,3.878,1.914,7.754a.731.731,0,0,1,.006.128H71.449c-.542,0-.542,0-.64.593h.722c1.143,0,2.285.005,3.428-.005.2,0,.291.053.319.255s.095.414.154.664h-.3c-1.411,0-2.821.013-4.231-.01-.322-.005-.48.092-.537.394-.013.067-.04.132-.073.237H70.6c1.571,0,3.142,0,4.713,0,.2,0,.307.043.343.262.045.279.131.551.211.871h-5.4c-.56,0-.56,0-.686.594h.287c1.892,0,3.784,0,5.676,0,.208,0,.307.052.336.266s.1.412.157.651h-.289l-5.73-.012c-.669,0-.661,0-.854.637q-1.143,3.773-2.3,7.541a1.724,1.724,0,0,1-.087.191,1.4,1.4,0,0,1-.113-.23q-.767-2.689-1.526-5.38c-.2-.7-.383-1.4-.574-2.1l-.213-.63-.215-.864Z" transform="translate(-2.869)"/><path class="cls-1" d="M64.773,13.547c.191.7.377,1.4.574,2.1q.759,2.691,1.526,5.38a1.4,1.4,0,0,0,.113.23c-.048.039-.1.11-.144.11-2.757,0-5.513,0-8.269.007-.18,0-.26-.04-.31-.227q-.981-3.732-1.979-7.458c-.011-.042-.015-.086-.024-.141.07-.006.131-.016.191-.016q4.081,0,8.162,0C64.667,13.537,64.72,13.544,64.773,13.547Z" transform="translate(-2.869)"/><path class="cls-11" d="M92.62,21.372l-6.265.009a5.028,5.028,0,0,0-.589,0c-.269.033-.383-.062-.457-.331-.673-2.428-1.362-4.852-2.045-7.278-.024-.084-.037-.171-.06-.282h.28q3.843,0,7.685,0c.2,0,.293.038.345.256.32,1.333.659,2.661.994,3.991.026.1.07.2.106.3Z" transform="translate(-2.869)"/><path class="cls-12" d="M133.071,13.556c-.2.723-.393,1.4-.572,2.076-.046.173-.11.252-.305.238-.291-.02-.585,0-.893,0l-.83-3.732c.35,0,.674-.008,1,.009.049,0,.117.118.131.19.12.59.228,1.182.381,1.781.1-.356.2-.711.3-1.067.062-.222.128-.445.177-.671a.268.268,0,0,1,.3-.25c.857-.008.856-.014,1.079.814a10.471,10.471,0,0,0,.367,1.165c.112-.591.219-1.183.343-1.771.016-.077.115-.189.182-.194.3-.021.6-.009.939-.009l-.823,3.735c-.348,0-.676.009-1-.008-.061,0-.148-.107-.169-.18-.181-.614-.35-1.232-.523-1.849C133.136,13.752,133.109,13.678,133.071,13.556Z" transform="translate(-2.869)"/><path class="cls-12" d="M117.252,14.316c.161-.628.333-1.254.477-1.886.053-.236.152-.322.395-.306.329.022.661,0,.99.013.074,0,.206.1.206.156.012,1.177.009,2.353.009,3.551h-.939v-2.6l-.058-.009q-.192.743-.382,1.485c-.077.3-.156.6-.223.908-.037.168-.1.251-.3.248-.622-.01-.622,0-.779-.615-.172-.672-.344-1.343-.565-2.01v2.6h-.915V12.131c.467,0,.92-.009,1.372.01.06,0,.142.138.166.225.174.644.336,1.292.5,1.938Z" transform="translate(-2.869)"/><path class="cls-13" d="M138.142,10.012h-1.075V6.3c.326,0,.637-.011.946.007a.361.361,0,0,1,.217.16c.371.534.733,1.074,1.1,1.612.047.07.1.135.193.257V6.313h1.065v3.711c-.331,0-.65.01-.968-.008a.358.358,0,0,1-.214-.162c-.411-.592-.815-1.19-1.263-1.847Z" transform="translate(-2.869)"/><path class="cls-14" d="M116.333,19.864v1.472h-1.148V17.689c.008-.007.021-.028.034-.028.819.006,1.64-.022,2.455.034a.871.871,0,0,1,.85.874,1.022,1.022,0,0,1-.658,1.08l-.165.064c.641.361.754,1.061,1.134,1.645-.436,0-.818.008-1.2-.008-.072,0-.162-.094-.2-.167-.2-.339-.373-.689-.566-1.03C116.734,19.917,116.649,19.874,116.333,19.864Zm.014-.694c.263-.025.508-.035.749-.074a.309.309,0,0,0,.266-.345.3.3,0,0,0-.283-.33c-.243-.022-.489,0-.732,0Z" transform="translate(-2.869)"/><path class="cls-13" d="M120.776,6.338c.74,0,1.463-.047,2.177.015a1.232,1.232,0,0,1,1.119,1.069,4.049,4.049,0,0,1,.049,1.322,1.434,1.434,0,0,1-1.509,1.271c-.524.028-1.051.008-1.577.009h-.259Zm1.15.8V9.159c.193,0,.371.013.546,0a.519.519,0,0,0,.5-.475A3.421,3.421,0,0,0,123,7.86c-.057-.531-.273-.706-.806-.718C122.11,7.14,122.03,7.142,121.926,7.142Z" transform="translate(-2.869)"/><path class="cls-15" d="M125.2,15.9c-.009-.142-.017-.22-.017-.3,0-1.061,0-2.122,0-3.183,0-.216.052-.3.282-.293.534.023,1.069.006,1.6.038a1.378,1.378,0,0,1,1.492,1.333,3.607,3.607,0,0,1-.049,1.293,1.185,1.185,0,0,1-1.036.99C126.724,15.863,125.969,15.862,125.2,15.9Zm1.17-2.885v1.975c.62.072,1.063.031,1.075-.8,0-.044.016-.088.019-.132C127.521,13.251,127.133,12.875,126.372,13.014Z" transform="translate(-2.869)"/><path class="cls-13" d="M153.834,10.013V6.351c.756,0,1.5-.045,2.244.016a1.213,1.213,0,0,1,1.02.912,2.7,2.7,0,0,1,.041,1.682,1.412,1.412,0,0,1-1.4,1.046C155.114,10.037,154.483,10.013,153.834,10.013Zm1.151-2.868V9.171c.145,0,.269,0,.394,0,.423-.014.616-.16.67-.572a3.157,3.157,0,0,0,0-.824c-.058-.43-.261-.594-.7-.628C155.238,7.137,155.122,7.145,154.985,7.145Z" transform="translate(-2.869)"/><path class="cls-14" d="M137.281,21.418a1.745,1.745,0,0,1-1.929-1.941,1.927,1.927,0,1,1,3.853.053A1.726,1.726,0,0,1,137.281,21.418Zm.772-1.9a4.128,4.128,0,0,0-.04-.446.7.7,0,0,0-.725-.616.662.662,0,0,0-.729.6,3.026,3.026,0,0,0,0,.926A.734.734,0,0,0,138,19.975,3.93,3.93,0,0,0,138.053,19.519Z" transform="translate(-2.869)"/><path class="cls-16" d="M126.37,17.669c.717,0,1.422-.043,2.119.013a1.252,1.252,0,0,1,1.171,1.08,4.417,4.417,0,0,1,.043,1.372,1.4,1.4,0,0,1-1.394,1.207c-.638.037-1.28.008-1.939.008Zm1.122,2.833c.177,0,.325.007.473,0a.555.555,0,0,0,.613-.539,3.129,3.129,0,0,0,.022-.691c-.043-.655-.34-.8-.961-.785a.2.2,0,0,0-.14.137C127.489,19.244,127.492,19.865,127.492,20.5Z" transform="translate(-2.869)"/><path class="cls-14" d="M148.07,21.418a1.644,1.644,0,0,1-1.728-.982,2.167,2.167,0,0,1,.234-2.252,2.24,2.24,0,0,1,2.448-.429A1.749,1.749,0,0,1,150,19.638a2.8,2.8,0,0,1-.274.989A1.662,1.662,0,0,1,148.07,21.418Zm.8-1.9c-.02-.155-.026-.308-.059-.454a.7.7,0,0,0-.76-.6.673.673,0,0,0-.695.64,3.314,3.314,0,0,0,.007.873.668.668,0,0,0,.715.586.655.655,0,0,0,.723-.57C148.832,19.831,148.844,19.67,148.866,19.514Z" transform="translate(-2.869)"/><path class="cls-17" d="M155.757,18.633l-1.081.2a.677.677,0,0,0-.619-.427.735.735,0,0,0-.812.617,2.576,2.576,0,0,0-.046.717.873.873,0,0,0,1.317.776c.223-.087.351-.2.257-.484h-.712V19.27h1.751c0,.5,0,.992-.005,1.488,0,.053-.071.117-.125.155a2.874,2.874,0,0,1-2.425.42,1.546,1.546,0,0,1-1.179-1.377,2.781,2.781,0,0,1,.016-.98,1.745,1.745,0,0,1,2.012-1.394c.134,0,.268.012.4.02A1.281,1.281,0,0,1,155.757,18.633Z" transform="translate(-2.869)"/><path class="cls-18" d="M148.512,10.006V6.313h3.047v.776h-1.885v.585h1.748v.762h-1.746v.732h1.943v.838Z" transform="translate(-2.869)"/><path class="cls-12" d="M138.77,13.522h1.724c.023.041.037.056.038.071.05.708.05.708-.65.708-.3,0-.59.014-.883-.005-.222-.014-.284.072-.263.276.013.131,0,.264,0,.428h1.956v.85h-3.072v-3.7h3.021v.776h-1.434C138.684,12.929,138.684,12.929,138.77,13.522Z" transform="translate(-2.869)"/><path class="cls-15" d="M145.949,13.19c-.325.019-.617.047-.909.045a.324.324,0,0,1-.222-.153.518.518,0,0,0-.621-.289c-.108.035-.187.157-.279.239.081.089.146.225.246.259.37.128.758.2,1.126.332A1.064,1.064,0,0,1,146,15.049a1.248,1.248,0,0,1-1.137.844,4.526,4.526,0,0,1-1.246-.067c-.541-.106-.823-.509-.915-1.186l1.062-.079c.037.1.065.182.1.262a.622.622,0,0,0,.877.293.413.413,0,0,0,.186-.291.417.417,0,0,0-.193-.311c-.249-.111-.526-.16-.784-.254a3.243,3.243,0,0,1-.681-.3.954.954,0,0,1,0-1.6,2.131,2.131,0,0,1,1.414-.275,2.227,2.227,0,0,1,.419.079A1.1,1.1,0,0,1,145.949,13.19Z" transform="translate(-2.869)"/><path class="cls-18" d="M118.794,10.016h-1.157c-.021-.05-.046-.1-.062-.147-.15-.459-.149-.459-.619-.459h-.107c-.223,0-.49-.068-.655.031-.144.088-.174.365-.261.573h-1.149c.3-.8.591-1.58.884-2.361.147-.392.287-.786.45-1.17a.336.336,0,0,1,.234-.177,7.239,7.239,0,0,1,.908,0,.281.281,0,0,1,.214.133c.446,1.161.882,2.327,1.319,3.493A.3.3,0,0,1,118.794,10.016Zm-2-2.739-.4,1.3h.8Z" transform="translate(-2.869)"/><path class="cls-18" d="M135.1,10.017h-1.166c-.01-.023-.026-.052-.037-.082-.187-.525-.187-.525-.761-.525h-.187c-.49,0-.486,0-.651.452-.024.066-.107.152-.166.155-.336.015-.672.007-1.053.007l.414-1.1c.3-.807.61-1.613.906-2.423.054-.148.118-.214.283-.206.285.015.571-.009.855.012a.336.336,0,0,1,.249.159c.439,1.136.863,2.278,1.29,3.419A.857.857,0,0,1,135.1,10.017Zm-1.608-1.433-.407-1.31-.389,1.31Z" transform="translate(-2.869)"/><path class="cls-14" d="M124.38,21.357c-.36,0-.706.013-1.05-.01-.069-.005-.167-.142-.184-.23-.053-.283-.186-.414-.486-.365a2.424,2.424,0,0,1-.4,0c-.494,0-.491,0-.674.457-.024.059-.1.136-.156.138-.336.013-.673.006-1.04.006.034-.114.054-.2.085-.28.4-1.066.806-2.13,1.2-3.2a.3.3,0,0,1,.346-.235c.275.016.553-.008.828.011a.31.31,0,0,1,.229.151c.435,1.129.857,2.263,1.281,3.4A.846.846,0,0,1,124.38,21.357Zm-1.975-2.663-.054,0-.368,1.231h.8Z" transform="translate(-2.869)"/><path class="cls-9" d="M92.649,11.35V10.344h8.092V11.35Z" transform="translate(-2.869)"/><path class="cls-18" d="M146.353,7.4l-.941.213a2.322,2.322,0,0,0-.421-.425.674.674,0,0,0-1,.5,3.773,3.773,0,0,0,0,1.007.6.6,0,0,0,.586.529.64.64,0,0,0,.693-.391c.045-.1.079-.2.13-.323l.96.286a1.434,1.434,0,0,1-1.357,1.282,3.932,3.932,0,0,1-.642,0A1.664,1.664,0,0,1,142.8,8.436a3.389,3.389,0,0,1,.02-.747,1.75,1.75,0,0,1,2.137-1.443A1.539,1.539,0,0,1,146.353,7.4Z" transform="translate(-2.869)"/><path class="cls-19" d="M129.822,6.3l-1.382,3.727c-.375,0-.732.007-1.088,0a.257.257,0,0,1-.2-.117c-.45-1.172-.89-2.348-1.331-3.523-.005-.014,0-.033.011-.066H127l.832,2.647c.253-.818.5-1.568.713-2.328.072-.259.172-.372.452-.341A8.039,8.039,0,0,0,129.822,6.3Z" transform="translate(-2.869)"/><path class="cls-14" d="M100.753,8.855c0,.249.01.48-.007.709,0,.057-.088.124-.15.157a.453.453,0,0,1-.185.005H92.659V8.855Z" transform="translate(-2.869)"/><path class="cls-9" d="M100.749,12.843H92.656v-.835h8.093Z" transform="translate(-2.869)"/><path class="cls-10" d="M150.258,15.85h-1.139V13.08h-1.166v-.93h3.454v.913h-1.149Z" transform="translate(-2.869)"/><path class="cls-16" d="M159.7,18.887c.224-.373.428-.727.649-1.07a.36.36,0,0,1,.236-.162c.355-.018.712-.008,1.111-.008-.052.092-.085.158-.125.219-.4.593-.8,1.183-1.185,1.781a.744.744,0,0,0-.111.37c-.014.435-.006.87-.006,1.323h-1.143c0-.425.013-.85-.006-1.274a.991.991,0,0,0-.144-.465c-.408-.636-.834-1.261-1.291-1.946.447,0,.841-.005,1.233.007.047,0,.1.092.135.15C159.265,18.161,159.474,18.511,159.7,18.887Z" transform="translate(-2.869)"/><path class="cls-20" d="M141.386,17.658h1.131v2.777h1.77v.907h-2.9Z" transform="translate(-2.869)"/><path class="cls-15" d="M122.812,15.853h-1.148c-.007-.08-.018-.148-.018-.216,0-1.08,0-2.159-.006-3.238,0-.213.062-.287.273-.273.231.015.465-.008.7.01.071.006.195.091.2.141C122.815,13.461,122.812,14.645,122.812,15.853Z" transform="translate(-2.869)"/><path class="cls-9" d="M131.99,17.658h1.1v3.684h-1.1Z" transform="translate(-2.869)"/><path class="cls-2" d="M64.124,11.444l.221.609-7.836-.006c-.547,0-.547,0-.673-.6Z" transform="translate(-2.869)"/><path class="cls-2" d="M63.644,9.738l.219.6-7.572-.006c-.552,0-.552,0-.67-.6Z" transform="translate(-2.869)"/><path class="cls-21" d="M63.218,8.243l.216.612-5.268-.008c-.749,0-1.5-.014-2.247.008-.278.008-.438-.059-.48-.345a1.731,1.731,0,0,0-.093-.267Z" transform="translate(-2.869)"/><path class="cls-21" d="M116.347,19.17v-.754c.243,0,.489-.017.732,0a.3.3,0,0,1,.283.33.309.309,0,0,1-.266.345C116.855,19.135,116.61,19.145,116.347,19.17Z" transform="translate(-2.869)"/><path class="cls-21" d="M121.926,7.142c.1,0,.184,0,.264,0,.533.012.749.187.806.718a3.421,3.421,0,0,1-.024.821.519.519,0,0,1-.5.475c-.175.016-.353,0-.546,0Z" transform="translate(-2.869)"/><path class="cls-2" d="M126.372,13.014c.761-.139,1.149.237,1.094,1.046,0,.044-.019.088-.019.132-.012.828-.455.869-1.075.8Z" transform="translate(-2.869)"/><path class="cls-22" d="M154.985,7.145c.137,0,.253-.008.367,0,.437.034.64.2.7.628a3.157,3.157,0,0,1,0,.824c-.054.412-.247.558-.67.572-.125,0-.249,0-.394,0Z" transform="translate(-2.869)"/><path class="cls-2" d="M138.053,19.519a3.93,3.93,0,0,1-.056.456.734.734,0,0,1-1.435.006,3.026,3.026,0,0,1,0-.926.662.662,0,0,1,.729-.6.7.7,0,0,1,.725.616A4.128,4.128,0,0,1,138.053,19.519Z" transform="translate(-2.869)"/><path class="cls-22" d="M127.492,20.5c0-.637,0-1.258.007-1.879a.2.2,0,0,1,.14-.137c.621-.012.918.13.961.785a3.129,3.129,0,0,1-.022.691.555.555,0,0,1-.613.539C127.817,20.509,127.669,20.5,127.492,20.5Z" transform="translate(-2.869)"/><path class="cls-21" d="M148.866,19.514c-.022.156-.034.317-.069.472a.655.655,0,0,1-.723.57.668.668,0,0,1-.715-.586,3.314,3.314,0,0,1-.007-.873.673.673,0,0,1,.695-.64.7.7,0,0,1,.76.6C148.84,19.206,148.846,19.359,148.866,19.514Z" transform="translate(-2.869)"/><path class="cls-22" d="M116.791,7.277l.4,1.3h-.8Z" transform="translate(-2.869)"/><path class="cls-22" d="M133.489,8.584h-.8l.389-1.31Z" transform="translate(-2.869)"/><path class="cls-23" d="M122.405,18.694l.38,1.235h-.8l.368-1.231Z" transform="translate(-2.869)"/><path class="cls-1" d="M2.869,24.275a6.832,6.832,0,0,1,1.184-.095,1.956,1.956,0,0,1,1.335.4,1.3,1.3,0,0,1,.419,1,1.4,1.4,0,0,1-.37,1.019,1.969,1.969,0,0,1-1.455.521,2.036,2.036,0,0,1-.5-.044v1.91H2.869Zm.615,2.293a1.867,1.867,0,0,0,.509.054c.746,0,1.2-.366,1.2-1.017,0-.63-.451-.938-1.125-.938a3,3,0,0,0-.582.048Z" transform="translate(-2.869)"/><path class="cls-1" d="M6.494,26.626c0-.4-.01-.747-.028-1.063h.545l.023.669h.022a1.038,1.038,0,0,1,.952-.747.725.725,0,0,1,.173.017v.584a1.012,1.012,0,0,0-.211-.018.867.867,0,0,0-.832.795,1.575,1.575,0,0,0-.026.291v1.825H6.494Z" transform="translate(-2.869)"/><path class="cls-1" d="M11.826,27.238a1.674,1.674,0,0,1-1.7,1.819A1.626,1.626,0,0,1,8.485,27.3a1.668,1.668,0,0,1,1.7-1.812A1.616,1.616,0,0,1,11.826,27.238Zm-2.709.039c0,.75.429,1.314,1.036,1.314s1.041-.556,1.041-1.332c0-.578-.292-1.309-1.03-1.309S9.117,26.63,9.117,27.277Z" transform="translate(-2.869)"/><path class="cls-1" d="M12.8,25.563l.671,1.915c.114.316.2.6.28.882h.018c.078-.283.176-.568.286-.882l.669-1.915h.649l-1.345,3.416h-.591l-1.3-3.416Z" transform="translate(-2.869)"/><path class="cls-1" d="M16.651,24.6a.385.385,0,1,1-.769,0,.377.377,0,0,1,.387-.387A.37.37,0,0,1,16.651,24.6Zm-.693,4.382V25.563h.618v3.416Z" transform="translate(-2.869)"/><path class="cls-1" d="M20.56,23.963V28.1c0,.3.01.645.027.881h-.553L20,28.388h-.016a1.253,1.253,0,0,1-1.16.669,1.56,1.56,0,0,1-1.466-1.736A1.637,1.637,0,0,1,18.9,25.485a1.138,1.138,0,0,1,1.03.518h.015v-2.04Zm-.618,2.99a1.271,1.271,0,0,0-.027-.266.918.918,0,0,0-.9-.715c-.643,0-1.028.564-1.028,1.315,0,.694.346,1.27,1.016,1.27a.939.939,0,0,0,.908-.746,1.014,1.014,0,0,0,.031-.267Z" transform="translate(-2.869)"/><path class="cls-1" d="M22.287,24.6a.385.385,0,1,1-.77,0,.378.378,0,0,1,.386-.387A.371.371,0,0,1,22.287,24.6Zm-.694,4.382V25.563h.619v3.416Z" transform="translate(-2.869)"/><path class="cls-1" d="M23.245,26.485c0-.357-.011-.639-.027-.922h.549l.033.561h.017a1.263,1.263,0,0,1,1.13-.639c.47,0,1.2.282,1.2,1.456v2.038h-.618v-1.97c0-.552-.208-1.015-.79-1.015a.9.9,0,0,0-.837.638.96.96,0,0,0-.042.288v2.059h-.619Z" transform="translate(-2.869)"/><path class="cls-1" d="M30.113,25.563c-.016.241-.028.518-.028.935v1.983a1.989,1.989,0,0,1-.488,1.564,1.835,1.835,0,0,1-1.245.411,2.205,2.205,0,0,1-1.141-.282l.155-.478a1.923,1.923,0,0,0,1.006.274c.635,0,1.1-.332,1.1-1.2v-.38h-.015a1.21,1.21,0,0,1-1.086.575A1.53,1.53,0,0,1,26.917,27.3a1.636,1.636,0,0,1,1.542-1.811,1.137,1.137,0,0,1,1.066.589h.014l.027-.511Zm-.646,1.343a.976.976,0,0,0-.034-.278.9.9,0,0,0-.873-.661c-.593,0-1.018.5-1.018,1.3,0,.668.346,1.23,1.012,1.23a.91.91,0,0,0,.864-.64,1.148,1.148,0,0,0,.049-.331Z" transform="translate(-2.869)"/><path class="cls-1" d="M36.556,29.676c-.643-.164-1.271-.36-1.822-.55a1,1,0,0,0-.291-.069,2.187,2.187,0,0,1-2.093-2.41,2.254,2.254,0,0,1,2.214-2.507A2.169,2.169,0,0,1,36.7,26.547a2.224,2.224,0,0,1-1.356,2.286v.027c.471.119.988.233,1.394.3Zm-.507-3.1c0-.953-.495-1.938-1.5-1.938C33.508,24.64,33,25.6,33,26.631c0,1.012.554,1.926,1.515,1.926C35.495,28.557,36.049,27.662,36.049,26.578Z" transform="translate(-2.869)"/><path class="cls-1" d="M40.353,28.044c0,.358.011.665.028.935h-.549L39.8,28.42h-.017a1.278,1.278,0,0,1-1.131.637c-.535,0-1.177-.3-1.177-1.5v-2h.619V27.45c0,.651.2,1.094.764,1.094a.906.906,0,0,0,.822-.57.993.993,0,0,0,.055-.319V25.563h.619Z" transform="translate(-2.869)"/><path class="cls-1" d="M43.281,28.979l-.054-.432h-.019a1.271,1.271,0,0,1-1.045.51.975.975,0,0,1-1.044-.981c0-.827.734-1.282,2.054-1.272v-.073a.7.7,0,0,0-.778-.788,1.667,1.667,0,0,0-.89.254l-.142-.413a2.158,2.158,0,0,1,1.128-.3c1.045,0,1.3.714,1.3,1.4v1.279a5.381,5.381,0,0,0,.052.817Zm-.1-1.745c-.672-.014-1.443.107-1.443.767a.548.548,0,0,0,.58.6.855.855,0,0,0,.833-.573.626.626,0,0,0,.03-.2Z" transform="translate(-2.869)"/><path class="cls-1" d="M44.79,23.963h.619v5.016H44.79Z" transform="translate(-2.869)"/><path class="cls-1" d="M47.151,24.6a.374.374,0,0,1-.394.385.369.369,0,0,1-.375-.385.377.377,0,0,1,.386-.387A.371.371,0,0,1,47.151,24.6Zm-.694,4.382V25.563h.618v3.416Z" transform="translate(-2.869)"/><path class="cls-1" d="M48.856,24.579v.984h.892v.47h-.892v1.842c0,.425.122.666.469.666a1.252,1.252,0,0,0,.361-.045l.028.472a1.6,1.6,0,0,1-.555.085.873.873,0,0,1-.672-.263,1.313,1.313,0,0,1-.24-.891V26.033h-.529v-.47h.529v-.824Z" transform="translate(-2.869)"/><path class="cls-1" d="M50.735,25.563l.747,2.019c.08.226.164.494.219.7h.018c.061-.2.136-.463.218-.711l.675-2.005h.661L52.337,28a5.2,5.2,0,0,1-1.17,2.143,1.726,1.726,0,0,1-.762.4l-.154-.519a1.626,1.626,0,0,0,.544-.3,1.973,1.973,0,0,0,.52-.692.357.357,0,0,0,.047-.15.39.39,0,0,0-.043-.159L50.06,25.563Z" transform="translate(-2.869)"/><path class="cls-1" d="M55.352,24.283a8.168,8.168,0,0,1,1.308-.1,2.726,2.726,0,0,1,1.929.6,2.176,2.176,0,0,1,.675,1.7,2.528,2.528,0,0,1-.685,1.852,2.96,2.96,0,0,1-2.108.687,9.893,9.893,0,0,1-1.119-.053ZM55.97,28.5a4.267,4.267,0,0,0,.618.029,1.826,1.826,0,0,0,2.028-2.019,1.7,1.7,0,0,0-1.925-1.834,3.682,3.682,0,0,0-.721.063Z" transform="translate(-2.869)"/><path class="cls-1" d="M60.745,24.6a.374.374,0,0,1-.394.385.369.369,0,0,1-.375-.385.376.376,0,0,1,.385-.387A.372.372,0,0,1,60.745,24.6Zm-.694,4.382V25.563h.618v3.416Z" transform="translate(-2.869)"/><path class="cls-1" d="M63.6,28.979l-.055-.432h-.018a1.272,1.272,0,0,1-1.045.51.975.975,0,0,1-1.044-.981c0-.827.733-1.282,2.053-1.272v-.073a.7.7,0,0,0-.778-.788,1.672,1.672,0,0,0-.89.254l-.141-.413a2.152,2.152,0,0,1,1.128-.3c1.045,0,1.3.714,1.3,1.4v1.279a5.388,5.388,0,0,0,.051.817Zm-.1-1.745c-.672-.014-1.442.107-1.442.767a.548.548,0,0,0,.58.6.857.857,0,0,0,.833-.573.654.654,0,0,0,.029-.2Z" transform="translate(-2.869)"/><path class="cls-1" d="M68.056,25.563c-.018.241-.03.518-.03.935v1.983a1.989,1.989,0,0,1-.487,1.564,1.832,1.832,0,0,1-1.245.411,2.205,2.205,0,0,1-1.141-.282l.157-.478a1.915,1.915,0,0,0,1.006.274c.633,0,1.1-.332,1.1-1.2v-.38H67.4a1.21,1.21,0,0,1-1.085.575A1.53,1.53,0,0,1,64.859,27.3,1.636,1.636,0,0,1,66.4,25.485a1.136,1.136,0,0,1,1.067.589h.014l.025-.511Zm-.647,1.343a.941.941,0,0,0-.035-.278.9.9,0,0,0-.872-.661c-.593,0-1.018.5-1.018,1.3,0,.668.345,1.23,1.011,1.23a.908.908,0,0,0,.865-.64,1.083,1.083,0,0,0,.049-.331Z" transform="translate(-2.869)"/><path class="cls-1" d="M69.013,26.485c0-.357-.012-.639-.029-.922h.549l.034.561h.018a1.261,1.261,0,0,1,1.129-.639c.471,0,1.2.282,1.2,1.456v2.038H71.3v-1.97c0-.552-.207-1.015-.789-1.015a.9.9,0,0,0-.838.638.993.993,0,0,0-.042.288v2.059h-.618Z" transform="translate(-2.869)"/><path class="cls-1" d="M76.025,27.238a1.674,1.674,0,0,1-1.7,1.819,1.627,1.627,0,0,1-1.642-1.76,1.669,1.669,0,0,1,1.7-1.812A1.616,1.616,0,0,1,76.025,27.238Zm-2.709.039c0,.75.429,1.314,1.035,1.314s1.041-.556,1.041-1.332c0-.578-.291-1.309-1.03-1.309S73.316,26.63,73.316,27.277Z" transform="translate(-2.869)"/><path class="cls-1" d="M76.721,28.346a1.691,1.691,0,0,0,.823.244c.454,0,.664-.223.664-.509s-.181-.456-.635-.625c-.617-.224-.909-.56-.908-.97a1.056,1.056,0,0,1,1.183-1,1.657,1.657,0,0,1,.837.21l-.155.451a1.347,1.347,0,0,0-.7-.2c-.367,0-.566.212-.566.47,0,.282.2.408.648.582.59.219.9.517.9,1.027,0,.605-.471,1.029-1.278,1.029a1.942,1.942,0,0,1-.96-.238Z" transform="translate(-2.869)"/><path class="cls-1" d="M80.351,24.579v.984h.892v.47h-.892v1.842c0,.425.123.666.47.666a1.244,1.244,0,0,0,.36-.045l.029.472a1.6,1.6,0,0,1-.556.085.867.867,0,0,1-.67-.263,1.307,1.307,0,0,1-.242-.891V26.033h-.529v-.47h.529v-.824Z" transform="translate(-2.869)"/><path class="cls-1" d="M82.637,24.6a.386.386,0,0,1-.771,0,.379.379,0,0,1,.387-.387A.372.372,0,0,1,82.637,24.6Zm-.7,4.382V25.563h.62v3.416Z" transform="translate(-2.869)"/><path class="cls-1" d="M86.031,28.855a2.352,2.352,0,0,1-.98.2,1.627,1.627,0,0,1-1.7-1.745,1.74,1.74,0,0,1,1.835-1.822,2.012,2.012,0,0,1,.864.182l-.139.477a1.506,1.506,0,0,0-.726-.165,1.185,1.185,0,0,0-1.2,1.294,1.172,1.172,0,0,0,1.189,1.279,1.811,1.811,0,0,0,.762-.164Z" transform="translate(-2.869)"/><path class="cls-1" d="M90.15,28.979l-.055-.432h-.018a1.27,1.27,0,0,1-1.046.51.975.975,0,0,1-1.044-.981c0-.827.735-1.282,2.054-1.272v-.073a.7.7,0,0,0-.778-.788,1.667,1.667,0,0,0-.89.254l-.141-.413a2.155,2.155,0,0,1,1.128-.3c1.044,0,1.3.714,1.3,1.4v1.279a5.388,5.388,0,0,0,.051.817Zm-.1-1.745c-.673-.014-1.444.107-1.444.767a.549.549,0,0,0,.582.6.857.857,0,0,0,.833-.573.654.654,0,0,0,.029-.2Z" transform="translate(-2.869)"/><path class="cls-1" d="M91.659,26.485c0-.357-.011-.639-.027-.922h.549l.033.561h.018a1.261,1.261,0,0,1,1.129-.639c.47,0,1.2.282,1.2,1.456v2.038h-.619v-1.97c0-.552-.208-1.015-.79-1.015a.9.9,0,0,0-.837.638.96.96,0,0,0-.042.288v2.059h-.619Z" transform="translate(-2.869)"/><path class="cls-1" d="M98.528,23.963V28.1c0,.3.011.645.028.881H98l-.031-.591h-.016a1.253,1.253,0,0,1-1.16.669,1.56,1.56,0,0,1-1.466-1.736,1.636,1.636,0,0,1,1.535-1.836A1.14,1.14,0,0,1,97.9,26h.014v-2.04Zm-.618,2.99a1.34,1.34,0,0,0-.026-.266.919.919,0,0,0-.9-.715c-.643,0-1.028.564-1.028,1.315,0,.694.346,1.27,1.016,1.27a.939.939,0,0,0,.908-.746,1.059,1.059,0,0,0,.03-.267Z" transform="translate(-2.869)"/><path class="cls-1" d="M101.7,24.217v4.762h-.618V24.217Z" transform="translate(-2.869)"/><path class="cls-1" d="M102.817,26.485c0-.357-.011-.639-.029-.922h.549l.035.561h.018a1.258,1.258,0,0,1,1.129-.639c.469,0,1.2.282,1.2,1.456v2.038h-.618v-1.97c0-.552-.208-1.015-.789-1.015a.894.894,0,0,0-.838.638.959.959,0,0,0-.043.288v2.059h-.618Z" transform="translate(-2.869)"/><path class="cls-1" d="M107.454,24.579v.984h.893v.47h-.893v1.842c0,.425.122.666.469.666a1.234,1.234,0,0,0,.36-.045l.029.472a1.6,1.6,0,0,1-.555.085.87.87,0,0,1-.671-.263,1.308,1.308,0,0,1-.241-.891V26.033h-.529v-.47h.529v-.824Z" transform="translate(-2.869)"/><path class="cls-1" d="M109.351,27.383a1.091,1.091,0,0,0,1.17,1.186,2.3,2.3,0,0,0,.945-.175l.109.441a2.736,2.736,0,0,1-1.139.218,1.592,1.592,0,0,1-1.681-1.724,1.659,1.659,0,0,1,1.607-1.844,1.441,1.441,0,0,1,1.407,1.607,1.49,1.49,0,0,1-.022.291Zm1.818-.447a.881.881,0,0,0-.856-1.006,1.021,1.021,0,0,0-.954,1.006Z" transform="translate(-2.869)"/><path class="cls-1" d="M112.54,26.626c0-.4-.01-.747-.028-1.063h.544l.024.669h.023a1.036,1.036,0,0,1,.951-.747.731.731,0,0,1,.173.017v.584a1.016,1.016,0,0,0-.212-.018.869.869,0,0,0-.832.795,1.669,1.669,0,0,0-.025.291v1.825h-.618Z" transform="translate(-2.869)"/><path class="cls-1" d="M115.266,25.563l.671,1.915c.114.316.2.6.279.882h.018c.079-.283.177-.568.287-.882l.668-1.915h.65l-1.345,3.416H115.9l-1.3-3.416Z" transform="translate(-2.869)"/><path class="cls-1" d="M118.7,27.383a1.091,1.091,0,0,0,1.17,1.186,2.3,2.3,0,0,0,.946-.175l.109.441a2.745,2.745,0,0,1-1.14.218,1.591,1.591,0,0,1-1.68-1.724,1.659,1.659,0,0,1,1.607-1.844,1.441,1.441,0,0,1,1.406,1.607,1.592,1.592,0,0,1-.021.291Zm1.819-.447a.881.881,0,0,0-.857-1.006,1.022,1.022,0,0,0-.954,1.006Z" transform="translate(-2.869)"/><path class="cls-1" d="M121.891,26.485c0-.357-.011-.639-.029-.922h.549l.035.561h.018a1.258,1.258,0,0,1,1.129-.639c.47,0,1.2.282,1.2,1.456v2.038h-.618v-1.97c0-.552-.208-1.015-.789-1.015a.9.9,0,0,0-.838.638.959.959,0,0,0-.043.288v2.059h-.618Z" transform="translate(-2.869)"/><path class="cls-1" d="M126.528,24.579v.984h.893v.47h-.893v1.842c0,.425.123.666.469.666a1.247,1.247,0,0,0,.361-.045l.028.472a1.6,1.6,0,0,1-.555.085.87.87,0,0,1-.671-.263,1.308,1.308,0,0,1-.241-.891V26.033h-.529v-.47h.529v-.824Z" transform="translate(-2.869)"/><path class="cls-1" d="M128.814,24.6a.374.374,0,0,1-.395.385.369.369,0,0,1-.375-.385.377.377,0,0,1,.386-.387A.373.373,0,0,1,128.814,24.6Zm-.695,4.382V25.563h.618v3.416Z" transform="translate(-2.869)"/><path class="cls-1" d="M132.864,27.238a1.674,1.674,0,0,1-1.7,1.819,1.626,1.626,0,0,1-1.642-1.76,1.669,1.669,0,0,1,1.7-1.812A1.615,1.615,0,0,1,132.864,27.238Zm-2.709.039c0,.75.43,1.314,1.036,1.314s1.041-.556,1.041-1.332c0-.578-.291-1.309-1.03-1.309S130.155,26.63,130.155,27.277Z" transform="translate(-2.869)"/><path class="cls-1" d="M133.649,26.485c0-.357-.011-.639-.029-.922h.549l.035.561h.018a1.258,1.258,0,0,1,1.129-.639c.469,0,1.2.282,1.2,1.456v2.038h-.618v-1.97c0-.552-.208-1.015-.789-1.015a.894.894,0,0,0-.838.638.959.959,0,0,0-.043.288v2.059h-.618Z" transform="translate(-2.869)"/><path class="cls-1" d="M139.462,28.979l-.055-.432h-.018a1.271,1.271,0,0,1-1.045.51.975.975,0,0,1-1.044-.981c0-.827.733-1.282,2.054-1.272v-.073a.7.7,0,0,0-.779-.788,1.67,1.67,0,0,0-.89.254l-.141-.413a2.152,2.152,0,0,1,1.128-.3c1.044,0,1.3.714,1.3,1.4v1.279a5.255,5.255,0,0,0,.052.817Zm-.1-1.745c-.672-.014-1.442.107-1.442.767a.548.548,0,0,0,.58.6.857.857,0,0,0,.833-.573.624.624,0,0,0,.029-.2Z" transform="translate(-2.869)"/><path class="cls-1" d="M140.971,23.963h.618v5.016h-.618Z" transform="translate(-2.869)"/><path class="cls-1" d="M144.073,28.23a2.158,2.158,0,0,0,1.1.308c.629,0,1-.329,1-.81,0-.442-.258-.7-.9-.943-.778-.276-1.26-.684-1.26-1.35a1.372,1.372,0,0,1,1.544-1.292,2.174,2.174,0,0,1,1.051.231l-.172.5a1.823,1.823,0,0,0-.9-.226c-.653,0-.9.388-.9.712,0,.443.289.66.946.914.808.317,1.215.7,1.215,1.4,0,.731-.538,1.373-1.666,1.373a2.445,2.445,0,0,1-1.217-.31Z" transform="translate(-2.869)"/><path class="cls-1" d="M150.751,27.238a1.674,1.674,0,0,1-1.7,1.819,1.627,1.627,0,0,1-1.643-1.76,1.669,1.669,0,0,1,1.7-1.812A1.615,1.615,0,0,1,150.751,27.238Zm-2.709.039c0,.75.43,1.314,1.035,1.314s1.041-.556,1.041-1.332c0-.578-.291-1.309-1.029-1.309S148.042,26.63,148.042,27.277Z" transform="translate(-2.869)"/><path class="cls-1" d="M151.535,23.963h.618v5.016h-.618Z" transform="translate(-2.869)"/><path class="cls-1" d="M156.059,28.044c0,.358.011.665.028.935h-.55l-.032-.559h-.018a1.274,1.274,0,0,1-1.13.637c-.536,0-1.177-.3-1.177-1.5v-2h.618V27.45c0,.651.2,1.094.764,1.094a.906.906,0,0,0,.822-.57.965.965,0,0,0,.057-.319V25.563h.618Z" transform="translate(-2.869)"/><path class="cls-1" d="M157.838,24.579v.984h.893v.47h-.893v1.842c0,.425.122.666.47.666a1.244,1.244,0,0,0,.36-.045l.028.472a1.6,1.6,0,0,1-.555.085.867.867,0,0,1-.67-.263,1.3,1.3,0,0,1-.241-.891V26.033h-.53v-.47h.53v-.824Z" transform="translate(-2.869)"/><path class="cls-1" d="M160.123,24.6a.385.385,0,1,1-.77,0,.378.378,0,0,1,.386-.387A.371.371,0,0,1,160.123,24.6Zm-.694,4.382V25.563h.618v3.416Z" transform="translate(-2.869)"/><path class="cls-1" d="M164.174,27.238a1.674,1.674,0,0,1-1.7,1.819,1.627,1.627,0,0,1-1.643-1.76,1.669,1.669,0,0,1,1.7-1.812A1.615,1.615,0,0,1,164.174,27.238Zm-2.709.039c0,.75.43,1.314,1.035,1.314s1.042-.556,1.042-1.332c0-.578-.292-1.309-1.03-1.309S161.465,26.63,161.465,27.277Z" transform="translate(-2.869)"/><path class="cls-1" d="M164.958,26.485c0-.357-.012-.639-.028-.922h.55l.034.561h.016a1.261,1.261,0,0,1,1.13-.639c.47,0,1.2.282,1.2,1.456v2.038h-.618v-1.97c0-.552-.208-1.015-.79-1.015a.9.9,0,0,0-.837.638.992.992,0,0,0-.043.288v2.059h-.618Z" transform="translate(-2.869)"/><path class="cls-1" d="M168.789,28.346a1.7,1.7,0,0,0,.823.244c.455,0,.664-.223.664-.509s-.18-.456-.634-.625c-.617-.224-.909-.56-.908-.97a1.056,1.056,0,0,1,1.182-1,1.654,1.654,0,0,1,.837.21l-.154.451a1.35,1.35,0,0,0-.7-.2c-.368,0-.567.212-.567.47,0,.282.2.408.65.582.588.219.894.517.9,1.027,0,.605-.471,1.029-1.278,1.029a1.939,1.939,0,0,1-.96-.238Z" transform="translate(-2.869)"/><path class="cls-1" d="M64.878,37.453V34.507H64.4v-.47h.477v-.165a1.634,1.634,0,0,1,.4-1.2,1.192,1.192,0,0,1,.831-.316,1.342,1.342,0,0,1,.53.1l-.082.478a.952.952,0,0,0-.4-.078c-.525,0-.662.465-.662.993v.185h.825v.47H65.5v2.946Z" transform="translate(-2.869)"/><path class="cls-1" d="M69.88,35.712a1.674,1.674,0,0,1-1.7,1.819,1.627,1.627,0,0,1-1.643-1.76,1.669,1.669,0,0,1,1.7-1.812A1.615,1.615,0,0,1,69.88,35.712Zm-2.709.039c0,.75.43,1.314,1.035,1.314s1.041-.556,1.041-1.332c0-.578-.291-1.309-1.029-1.309S67.171,35.1,67.171,35.751Z" transform="translate(-2.869)"/><path class="cls-1" d="M70.663,35.1c0-.4-.01-.747-.028-1.064h.544l.024.67h.023a1.037,1.037,0,0,1,.951-.748.731.731,0,0,1,.173.017v.585a.947.947,0,0,0-.212-.019.87.87,0,0,0-.832.8,1.669,1.669,0,0,0-.025.291v1.825h-.618Z" transform="translate(-2.869)"/><path class="cls-1" d="M75.23,37.453V35.435l-1.51-2.744h.7l.669,1.316c.182.361.327.649.474.982h.013c.132-.313.3-.625.479-.986l.686-1.312h.7l-1.594,2.734v2.028Z" transform="translate(-2.869)"/><path class="cls-1" d="M80.523,35.712a1.675,1.675,0,0,1-1.7,1.819,1.627,1.627,0,0,1-1.642-1.76,1.669,1.669,0,0,1,1.7-1.812A1.616,1.616,0,0,1,80.523,35.712Zm-2.709.039c0,.75.428,1.314,1.035,1.314s1.041-.556,1.041-1.332c0-.578-.291-1.309-1.03-1.309S77.814,35.1,77.814,35.751Z" transform="translate(-2.869)"/><path class="cls-1" d="M84.163,36.518c0,.358.012.665.029.935h-.549l-.034-.558h-.016a1.28,1.28,0,0,1-1.131.636c-.535,0-1.178-.3-1.178-1.5v-2H81.9v1.887c0,.651.2,1.094.764,1.094a.9.9,0,0,0,.822-.57.961.961,0,0,0,.056-.319V34.037h.618Z" transform="translate(-2.869)"/><path class="cls-1" d="M85.2,35.1c0-.4-.009-.747-.028-1.064h.544l.024.67h.023a1.037,1.037,0,0,1,.951-.748.731.731,0,0,1,.173.017v.585a.947.947,0,0,0-.212-.019.87.87,0,0,0-.832.8,1.672,1.672,0,0,0-.024.291v1.825H85.2Z" transform="translate(-2.869)"/><path class="cls-1" d="M89.022,32.75a6.7,6.7,0,0,1,1.183-.1,1.954,1.954,0,0,1,1.335.4,1.3,1.3,0,0,1,.419,1,1.4,1.4,0,0,1-.37,1.019,2.4,2.4,0,0,1-1.953.477v1.91h-.614Zm.614,2.292a1.875,1.875,0,0,0,.51.054c.746,0,1.2-.366,1.2-1.016,0-.631-.45-.939-1.125-.939a3,3,0,0,0-.582.048Z" transform="translate(-2.869)"/><path class="cls-1" d="M94.472,37.453l-.055-.432H94.4a1.268,1.268,0,0,1-1.045.51.974.974,0,0,1-1.043-.981c0-.827.732-1.282,2.052-1.272v-.073a.7.7,0,0,0-.777-.788,1.676,1.676,0,0,0-.891.254l-.14-.413a2.151,2.151,0,0,1,1.127-.3c1.045,0,1.3.714,1.3,1.4v1.279a5.255,5.255,0,0,0,.052.817Zm-.1-1.744c-.672-.015-1.441.106-1.441.767a.547.547,0,0,0,.58.595.856.856,0,0,0,.832-.572.665.665,0,0,0,.029-.2Z" transform="translate(-2.869)"/><path class="cls-1" d="M96.7,33.053v.984h.893v.47H96.7v1.842c0,.425.123.666.47.666a1.244,1.244,0,0,0,.36-.045l.029.472a1.6,1.6,0,0,1-.556.085.868.868,0,0,1-.67-.263,1.3,1.3,0,0,1-.242-.891V34.507H95.56v-.47h.529v-.824Z" transform="translate(-2.869)"/><path class="cls-1" d="M98.984,33.071a.385.385,0,1,1-.77,0,.378.378,0,0,1,.387-.387A.371.371,0,0,1,98.984,33.071Zm-.694,4.382V34.037h.619v3.416Z" transform="translate(-2.869)"/><path class="cls-1" d="M100.29,35.857a1.091,1.091,0,0,0,1.17,1.186,2.292,2.292,0,0,0,.945-.175l.11.442a2.765,2.765,0,0,1-1.14.217A1.592,1.592,0,0,1,99.694,35.8a1.66,1.66,0,0,1,1.608-1.844,1.441,1.441,0,0,1,1.406,1.607,1.584,1.584,0,0,1-.021.291Zm1.819-.447a.883.883,0,0,0-.857-1.006,1.022,1.022,0,0,0-.954,1.006Z" transform="translate(-2.869)"/><path class="cls-1" d="M103.481,34.959c0-.356-.011-.639-.029-.922H104l.035.561h.018a1.258,1.258,0,0,1,1.129-.639c.469,0,1.2.282,1.2,1.456v2.038h-.618v-1.97c0-.552-.208-1.015-.789-1.015a.894.894,0,0,0-.838.638.959.959,0,0,0-.043.288v2.059h-.618Z" transform="translate(-2.869)"/><path class="cls-1" d="M108.118,33.053v.984h.893v.47h-.893v1.842c0,.425.122.666.469.666a1.234,1.234,0,0,0,.36-.045l.029.472a1.6,1.6,0,0,1-.555.085.87.87,0,0,1-.671-.263,1.308,1.308,0,0,1-.241-.891V34.507h-.529v-.47h.529v-.824Z" transform="translate(-2.869)"/></g></g></svg>