<svg xmlns="http://www.w3.org/2000/svg" viewBox="0 0 218 256"><defs><style>.cls-1{fill:#fff;}</style></defs><title>bone</title><g id="Layer_2" data-name="Layer 2"><g id="Layer_1-2" data-name="Layer 1"><path class="cls-1" d="M210.25,256H23.463A23.463,23.463,0,0,1,0,232.537V23.463A23.463,23.463,0,0,1,23.463,0h187A7.533,7.533,0,0,1,218,7.533V77.874a2.48,2.48,0,0,1-.686,1.722c-6.269,6.483-13.814,1.967-13.814-4.382V23.382A8.382,8.382,0,0,0,195.118,15H23.382A8.382,8.382,0,0,0,15,23.382V232.618A8.382,8.382,0,0,0,23.382,241H200.231A2.769,2.769,0,0,0,203,238.231V126.114a2.539,2.539,0,0,1,.741-1.807C210.22,117.9,218,122.391,218,128.7V248.25A7.75,7.75,0,0,1,210.25,256Z"/><path class="cls-1" d="M129.527,156.619c-.683,0-1.358.036-2.027.089V141.219L94.891,127.948l32.609-13.27V99.188c.669.053,1.344.089,2.027.089A25.55,25.55,0,1,0,109.25,58.191,25.548,25.548,0,1,0,88.973,99.277c.683,0,1.358-.036,2.027-.089v57.519c-.669-.053-1.344-.089-2.027-.089A25.55,25.55,0,1,0,109.25,197.7a25.547,25.547,0,1,0,20.277-41.085Z"/><path class="cls-1" d="M129.284,215.081a32.777,32.777,0,0,1-20.035-6.906,32.769,32.769,0,0,1-20.03,6.906A33.035,33.035,0,0,1,83.5,149.475V106.421a33.035,33.035,0,0,1,5.728-65.6,32.763,32.763,0,0,1,20.021,6.9,32.772,32.772,0,0,1,20.027-6.9A33.035,33.035,0,0,1,135,106.421v8.286a7.541,7.541,0,0,1-4.7,6.984l-15.374,6.257L130.3,134.2a7.539,7.539,0,0,1,4.7,6.984v8.286a33.036,33.036,0,0,1-5.716,65.607Zm-14.343-22.387c5.788,8.027,17.028,10.353,26.752,3.528a8.284,8.284,0,0,0,2.089-2.111c9.9-14.507-.34-30.051-14.146-30.051-.409,0-.867.022-1.442.066a7.657,7.657,0,0,1-8.141-6.432,3.743,3.743,0,0,1-.053-.66V146.09l-21.5-8.75V157.1a3.609,3.609,0,0,1-.066.727,7.673,7.673,0,0,1-8.128,6.3c-2.822-.222-2.847.15-8.018.643a8.4,8.4,0,0,0-5.576,2.835c-13.108,15.18-2.48,32.637,12.151,32.637a17.975,17.975,0,0,0,14.359-7.1,7.716,7.716,0,0,1,11.042-1.183A3.511,3.511,0,0,1,114.941,192.694ZM90.9,91.746a7.686,7.686,0,0,1,7.532,6.321,3.55,3.55,0,0,1,.065.713v19.776l21.5-8.749V98.75a3.549,3.549,0,0,1,.072-.749,7.688,7.688,0,0,1,8.122-6.231c2.811.221,2.808-.146,8.039-.633a8.3,8.3,0,0,0,5.5-2.788c13.186-15.188,2.549-32.693-12.1-32.693a17.977,17.977,0,0,0-14.359,7.095,7.6,7.6,0,0,1-6.028,2.973h0a7.6,7.6,0,0,1-6.029-2.973c-5.886-7.67-16.906-9.776-26.451-3.05a8.182,8.182,0,0,0-2.043,2.069c-9.92,14.513.325,30.066,14.136,30.066.409,0,.867-.021,1.442-.066C90.505,91.754,90.7,91.746,90.9,91.746Z"/></g></g></svg>