<svg xmlns="http://www.w3.org/2000/svg" viewBox="0 0 73.182 67.655"><defs><style>.cls-1{fill:#fff;}</style></defs><title>clock</title><g id="Layer_2" data-name="Layer 2"><g id="Layer_1-2" data-name="Layer 1"><g id="Layer_1-3" data-name="Layer 1"><path class="cls-1" d="M73.036,28.564a2,2,0,0,0-1.395-1.027H67.084A33.845,33.845,0,1,0,63.126,50.75,3.076,3.076,0,0,0,57.8,47.669a27.705,27.705,0,1,1,2.99-19.989H56.27A1.537,1.537,0,0,0,55.087,30.2l7.688,9.226a1.539,1.539,0,0,0,2.362,0L72.826,30.2A1.537,1.537,0,0,0,73.036,28.564Z"/><path class="cls-1" d="M30.706,10.856V29.42A5.37,5.37,0,0,0,33.779,39.2a5.312,5.312,0,0,0,2.268-.52l10.684,6.167a3.07,3.07,0,1,0,3.07-5.318L39.106,33.352a5.35,5.35,0,0,0-2.253-3.929V10.782A3.078,3.078,0,0,0,33.5,7.723,3.12,3.12,0,0,0,30.706,10.856Zm3.122,25.278a2.305,2.305,0,1,1,2.306-2.3A2.308,2.308,0,0,1,33.828,36.134Z"/></g></g></g></svg>