<svg xmlns="http://www.w3.org/2000/svg" viewBox="0 0 123.758 185.422"><defs><style>.cls-1{fill:#fff;}</style></defs><title>doc</title><g id="Layer_2" data-name="Layer 2"><g id="Layer_1-2" data-name="Layer 1"><path class="cls-1" d="M104.6,101.289l-27.165-14.1V77.228H69.478V89.506a3.854,3.854,0,0,0,2.084,3.424l29.246,15.139A28.108,28.108,0,0,1,115.8,133.262v44.2H7.963v-44.2A28.1,28.1,0,0,1,22.95,108.069L52.2,92.93a3.857,3.857,0,0,0,2.084-3.424V77.228H46.319v9.957l-27.165,14.1A35.873,35.873,0,0,0,0,133.392v48.166a3.861,3.861,0,0,0,3.859,3.864H119.9a3.862,3.862,0,0,0,3.86-3.864V133.392A35.874,35.874,0,0,0,104.6,101.289Z"/><rect class="cls-1" x="19.542" y="154.303" width="7.599" height="27.139"/><rect class="cls-1" x="96.617" y="154.303" width="7.599" height="27.139"/><path class="cls-1" d="M69.838,87.515l-7.963,21.229L53.913,87.511l-7.233,2.7,11.579,30.878a3.865,3.865,0,0,0,7.234,0L77.072,90.217Z"/><path class="cls-1" d="M77.077,92.787v13.237L59.759,116.466a3.858,3.858,0,0,0-1.861,3.3v61.673h7.961V121.951l17.318-10.442a3.858,3.858,0,0,0,1.861-3.3V92.787Z"/><path class="cls-1" d="M91.881,115.733a15.414,15.414,0,0,0-14.442,15.411v11.579h7.6V131.305a7.78,7.78,0,1,1,15.559-.161v11.579h7.6V131.406A15.583,15.583,0,0,0,91.881,115.733Z"/><rect class="cls-1" x="89.018" y="100.386" width="7.599" height="19.178"/><rect class="cls-1" x="27.141" y="100.386" width="7.599" height="27.139"/><path class="cls-1" d="M31,123.6a11.58,11.58,0,1,0,11.58,11.579A11.579,11.579,0,0,0,31,123.6Zm0,15.439a3.86,3.86,0,1,1,3.86-3.86A3.86,3.86,0,0,1,31,139.035Z"/><path class="cls-1" d="M46.319,106.042V92.787h-7.6v15.44a3.874,3.874,0,0,0,1.843,3.307l19,11.58,3.914-6.616Z"/><path class="cls-1" d="M58.907.123A31.11,31.11,0,0,0,30.759,31.237V54.143a30.939,30.939,0,0,0,61.877,0v-23.2A30.942,30.942,0,0,0,58.907.123Zm26.131,54a23.16,23.16,0,1,1-46.318-.334V30.961a23.159,23.159,0,0,1,46.318,0Z"/><path class="cls-1" d="M52.859,28.231a3.881,3.881,0,0,0-4.19-.943,3.705,3.705,0,0,0-2.376,3.466c-.181,1.409-2.838,4.067-11.553,4.067v7.7c9.813,0,14.634-2.946,16.987-5.862C62.78,42.2,83.969,42.523,88.656,42.523v-7.7C77.356,34.821,57.65,33.03,52.859,28.231Z"/></g></g></svg>