<svg xmlns="http://www.w3.org/2000/svg" viewBox="0 0 149.9 21.505"><defs><style>.cls-1,.cls-5,.cls-6,.cls-7,.cls-8{fill:#114779;}.cls-2{fill:#fff;}.cls-3{fill:#245384;}.cls-4{fill:none;stroke:#245384;stroke-width:1.128px;}.cls-4,.cls-5,.cls-6,.cls-7,.cls-8{stroke-miterlimit:10;}.cls-5,.cls-6,.cls-7,.cls-8{stroke:#fff;}.cls-5{stroke-width:0.196px;}.cls-6{stroke-width:0.139px;}.cls-7{stroke-width:0.028px;}.cls-8{stroke-width:0.159px;}.cls-9{fill:#488cc5;}.cls-10{fill:#85a2b6;}.cls-11{fill:#85a1b5;}.cls-12{fill:#86a2b6;}.cls-13{fill:#245c8d;}.cls-14{fill:#498ec7;}.cls-15{fill:#86a3b5;}.cls-16{fill:#498cc7;}.cls-17{fill:#488dc7;}.cls-18{fill:#255d8d;}.cls-19{fill:#255f8e;}.cls-20{fill:#4b8ec6;}.cls-21{fill:#fafdff;}.cls-22{fill:#f6f9fb;}.cls-23{fill:#f2f6f8;}</style></defs><title>logoFinal</title><g id="Layer_2" data-name="Layer 2"><g id="Layer_1-2" data-name="Layer 1"><rect class="cls-1" y="20.511" width="30.893" height="0.98"/><rect class="cls-1" x="14.554" y="12.006" width="12.205" height="8.11"/><rect class="cls-1" x="27.054" y="12.012" width="3.491" height="8.111"/><ellipse class="cls-2" cx="21.623" cy="9.522" rx="9.409" ry="9.522"/><circle class="cls-3" cx="21.623" cy="9.409" r="9.409"/><circle class="cls-2" cx="19.082" cy="9.076" r="7.532"/><circle class="cls-4" cx="18.758" cy="8.972" r="6.696"/><rect class="cls-5" x="1.651" y="12.106" width="19.482" height="0.882"/><rect class="cls-6" x="1.689" y="13.07" width="9.851" height="0.882"/><rect class="cls-6" x="1.72" y="14.071" width="9.851" height="0.882"/><rect class="cls-6" x="1.72" y="15.115" width="9.851" height="0.882"/><rect class="cls-6" x="1.72" y="16.139" width="9.851" height="0.882"/><rect class="cls-6" x="1.72" y="17.203" width="9.851" height="0.882"/><rect class="cls-6" x="1.72" y="18.315" width="9.851" height="0.882"/><rect class="cls-1" x="9.485" y="8.561" width="7.748" height="3.459" rx="1.729"/><circle class="cls-1" cx="19.345" cy="10.199" r="1.887"/><path class="cls-7" d="M7.677,11.217l-5.232.812A.992.992,0,0,1,1.312,11.2h0a.992.992,0,0,1,.828-1.133h0L7.166,9.3a1.188,1.188,0,0,1,1.34.788h0A.993.993,0,0,1,7.677,11.217Z"/><path class="cls-1" d="M10.915,11.3l-.824.243L5.847,11.3l1.341-2,2.047-.085,1.782-.1V11.2a.1.1,0,0,1-.1.1Z"/><path class="cls-8" d="M12.6,10.211h3.252a.684.684,0,0,1,.684.684h0v.355a.431.431,0,0,1-.432.432H12.422a.7.7,0,0,1-.461-.174L9.137,9.018s-.278-.2.119-.556.318-.477.835-.278A19.981,19.981,0,0,1,12.6,10.211Z"/><rect class="cls-1" y="19.159" width="21.133" height="0.968"/><path class="cls-9" d="M80.882,8.239V.119c.118-.006.2-.015.29-.014l5.891.017c1.749.009,3.5-.014,5.247.045a8.393,8.393,0,0,1,6.066,2.577,9.017,9.017,0,0,1,2.41,5.067,9.686,9.686,0,0,1-1.229,6.313,15.094,15.094,0,0,1-1,1.347l3.986,5.891c-.108.011-.181.023-.253.023q-4.044,0-8.087.007a.442.442,0,0,1-.4-.239q-2.286-3.316-4.579-6.627c-.058-.084-.117-.166-.221-.313-.035,2.434-.069,4.784-.1,7.153H80.824V13.5a1.439,1.439,0,0,1,.159-.02q3.894-.014,7.789-.023c.793,0,1.586.03,2.379.026a2.671,2.671,0,0,0,2.672-2.041A2.642,2.642,0,0,0,91.8,8.3a2.711,2.711,0,0,0-.466-.058c-3.381-.01-6.762,0-10.144,0Z"/><path class="cls-10" d="M78.31,8.138H73.136c-.424,0-.522.1-.544.593H78.21c.194,0,.293.043.322.25.043.225.1.448.162.667H72.687c-.468,0-.535.067-.578.593h.317q3.066,0,6.132,0c.217,0,.321.05.357.278.046.286.135.565.215.884H72.187c-.555,0-.555,0-.66.607H79c.214,0,.331.043.36.273.025.2.087.4.141.632h-.338c-2.5,0-5,.007-7.5-.009a.466.466,0,0,0-.537.382c-.716,2.147-1.453,4.287-2.183,6.429-.178.523-.364,1.043-.532,1.57a.267.267,0,0,1-.3.218q-3.507-.008-7.015,0a.257.257,0,0,1-.3-.191q-1.355-3.8-2.722-7.6c-.021-.057-.029-.117-.05-.2h6.31c.209,0,.285-.062.338-.266q1.675-6.45,3.364-12.9a.31.31,0,0,1,.331-.286l.029,0q3.843.014,7.685,0a.26.26,0,0,1,.3.212l0,.027q.945,3.839,1.9,7.674C78.29,8.013,78.3,8.056,78.31,8.138Z"/><path class="cls-1" d="M52.764,12.917c-.106,0-.213.012-.32.012H44.2c-.478,1.124-.966,2.27-1.453,3.416q-1.027,2.421-2.05,4.845a.336.336,0,0,1-.371.244c-2.053-.008-4.1-.005-6.158-.005h-.266c.028-.094.045-.168.072-.239Q37.889,10.762,41.791.331a.309.309,0,0,1,.344-.239Q45.5.1,48.881.092a.278.278,0,0,1,.32.23l0,.02q1.074,3.819,2.166,7.631c.012.043.031.083.046.124l.005.146H43.55a1.8,1.8,0,0,1,.093.267c.042.286.2.353.48.345.749-.022,1.5-.009,2.247-.008l5.268.009.21.882H43.825c.118.6.118.6.67.6l7.572.006.261,1.1H44.04c.126.6.126.6.673.6l7.836.006Z"/><path class="cls-10" d="M52.328,11.444l-.261-1.1-.219-.6-.21-.883-.216-.612,0-.149c.145-.576.3-1.15.431-1.729q.708-3.044,1.4-6.089c.04-.173.122-.219.294-.219q3.748.008,7.5,0c.155,0,.243.032.284.2q.952,3.878,1.914,7.754a.682.682,0,0,1,.006.128H59.653c-.542,0-.542,0-.64.593h.722c1.143,0,2.285.005,3.428,0,.2,0,.291.053.319.255s.095.414.154.664h-.3c-1.411,0-2.821.013-4.231-.01-.322,0-.48.092-.537.394-.013.067-.04.132-.073.237h5.022c.2,0,.307.043.343.262.045.279.131.551.211.871h-5.4c-.56,0-.56,0-.686.594h5.963c.208,0,.307.052.336.266s.1.412.157.651h-.289l-5.73-.012c-.669,0-.661,0-.854.637q-1.143,3.772-2.3,7.541a1.724,1.724,0,0,1-.087.191,1.4,1.4,0,0,1-.113-.23q-.766-2.689-1.526-5.38c-.2-.7-.383-1.4-.574-2.1l-.213-.63-.215-.864Z"/><path class="cls-1" d="M52.977,13.547c.191.7.377,1.4.574,2.1q.759,2.691,1.526,5.38a1.4,1.4,0,0,0,.113.23c-.048.039-.1.11-.144.11q-4.135,0-8.269.007c-.18,0-.26-.04-.31-.227q-.981-3.732-1.979-7.458c-.011-.042-.015-.086-.024-.141.07-.006.131-.016.191-.016h8.162C52.871,13.537,52.924,13.544,52.977,13.547Z"/><path class="cls-11" d="M80.824,21.372l-6.265.009a4.823,4.823,0,0,0-.589,0c-.269.033-.383-.062-.457-.331-.673-2.428-1.362-4.852-2.045-7.278-.024-.084-.037-.171-.06-.282h7.965c.2,0,.293.038.345.256.32,1.333.659,2.661.994,3.991.026.1.07.2.106.3Z"/><path class="cls-12" d="M121.275,13.556c-.2.723-.393,1.4-.572,2.076-.046.173-.11.252-.305.238-.291-.02-.585,0-.893,0l-.83-3.732c.35,0,.674-.008,1,.009.049,0,.117.118.131.19.12.59.228,1.182.381,1.781l.3-1.067c.062-.222.128-.445.177-.671a.268.268,0,0,1,.284-.251h.016c.857-.008.856-.014,1.079.814a10.561,10.561,0,0,0,.367,1.165c.112-.591.219-1.183.343-1.771.016-.077.115-.189.182-.194.3-.021.6-.009.939-.009l-.823,3.735c-.348,0-.676.009-1-.008-.061,0-.148-.107-.169-.18-.181-.614-.35-1.232-.523-1.849C121.34,13.752,121.313,13.678,121.275,13.556Z"/><path class="cls-12" d="M105.456,14.316c.161-.628.333-1.254.477-1.886.053-.236.152-.322.395-.306.329.022.661,0,.99.013.074,0,.206.1.206.156.012,1.177.009,2.353.009,3.551h-.939v-2.6l-.058-.009q-.192.743-.382,1.485c-.077.3-.156.6-.223.908-.037.168-.1.251-.3.248-.622-.01-.622,0-.779-.615-.172-.672-.344-1.343-.565-2.01v2.6h-.915v-3.72c.467,0,.92-.009,1.372.01.06,0,.142.138.166.225.174.644.336,1.292.5,1.938Z"/><path class="cls-13" d="M126.346,10.012h-1.075V6.3c.326,0,.637-.011.946.007a.362.362,0,0,1,.217.16c.371.534.733,1.074,1.1,1.612.047.07.1.135.193.257V6.313h1.065v3.711c-.331,0-.65.01-.968-.008a.356.356,0,0,1-.214-.162c-.411-.592-.815-1.19-1.263-1.847Z"/><path class="cls-14" d="M104.537,19.864v1.472h-1.148V17.689c.008-.007.021-.028.034-.028.819.006,1.64-.022,2.455.034a.871.871,0,0,1,.85.874,1.023,1.023,0,0,1-.658,1.08l-.165.064c.641.361.754,1.061,1.134,1.645-.436,0-.818.008-1.2-.008-.072,0-.162-.094-.2-.167-.2-.339-.373-.689-.566-1.03C104.938,19.917,104.853,19.874,104.537,19.864Zm.014-.694c.263-.025.508-.035.749-.074a.309.309,0,0,0,.266-.345.3.3,0,0,0-.268-.329h-.015c-.243-.022-.489,0-.732,0Z"/><path class="cls-13" d="M108.98,6.338c.74,0,1.463-.047,2.177.015a1.232,1.232,0,0,1,1.119,1.069,4.048,4.048,0,0,1,.049,1.322,1.434,1.434,0,0,1-1.509,1.271c-.524.028-1.051.008-1.577.009h-.259Zm1.15.8V9.159c.193,0,.371.013.546,0a.519.519,0,0,0,.5-.475,3.393,3.393,0,0,0,.028-.824c-.057-.531-.273-.706-.806-.718-.084,0-.164,0-.268,0Z"/><path class="cls-15" d="M113.4,15.9c-.009-.142-.017-.22-.017-.3V12.417c0-.216.052-.3.282-.293.534.023,1.069.006,1.6.038a1.378,1.378,0,0,1,1.488,1.259c0,.024,0,.049,0,.074a3.6,3.6,0,0,1-.049,1.293,1.185,1.185,0,0,1-1.036.99C114.928,15.863,114.173,15.862,113.4,15.9Zm1.17-2.885V14.99c.62.072,1.063.031,1.075-.8,0-.044.016-.088.019-.132.057-.807-.331-1.183-1.092-1.044Z"/><path class="cls-13" d="M142.038,10.013V6.351c.756,0,1.5-.045,2.244.016a1.214,1.214,0,0,1,1.02.912,2.7,2.7,0,0,1,.041,1.682,1.412,1.412,0,0,1-1.4,1.046C143.318,10.037,142.687,10.013,142.038,10.013Zm1.151-2.868V9.171h.394c.423-.014.616-.16.67-.572a3.157,3.157,0,0,0,0-.824c-.058-.43-.261-.594-.7-.628C143.442,7.137,143.326,7.145,143.189,7.145Z"/><path class="cls-14" d="M125.485,21.418a1.746,1.746,0,0,1-1.929-1.941,1.927,1.927,0,1,1,3.854-.017c0,.023,0,.047,0,.07a1.727,1.727,0,0,1-1.543,1.892A1.8,1.8,0,0,1,125.485,21.418Zm.772-1.9a4.174,4.174,0,0,0-.04-.446.7.7,0,0,0-.725-.616.662.662,0,0,0-.728.589v.011a3.058,3.058,0,0,0,0,.926.734.734,0,0,0,1.441-.007,3.882,3.882,0,0,0,.053-.456Z"/><path class="cls-16" d="M114.574,17.669c.717,0,1.422-.043,2.119.013a1.251,1.251,0,0,1,1.171,1.08,4.416,4.416,0,0,1,.043,1.372,1.4,1.4,0,0,1-1.394,1.207c-.638.037-1.28.008-1.939.008ZM115.7,20.5c.177,0,.325.007.473,0a.555.555,0,0,0,.61-.494.34.34,0,0,0,0-.045,3.133,3.133,0,0,0,.022-.691c-.043-.655-.34-.8-.961-.785a.2.2,0,0,0-.14.137c-.01.62-.007,1.241-.007,1.876Z"/><path class="cls-14" d="M136.274,21.418a1.645,1.645,0,0,1-1.728-.982,2.166,2.166,0,0,1,.234-2.252,2.241,2.241,0,0,1,2.448-.429,1.749,1.749,0,0,1,.976,1.883,2.817,2.817,0,0,1-.274.989A1.661,1.661,0,0,1,136.274,21.418Zm.8-1.9c-.02-.155-.026-.308-.059-.454a.7.7,0,0,0-.76-.6.673.673,0,0,0-.695.64,3.314,3.314,0,0,0,.007.873.668.668,0,0,0,.715.586.655.655,0,0,0,.723-.57c.031-.162.043-.323.065-.479Z"/><path class="cls-17" d="M143.961,18.633l-1.081.2a.677.677,0,0,0-.619-.427.735.735,0,0,0-.812.617,2.576,2.576,0,0,0-.046.717.873.873,0,0,0,1.317.776c.223-.087.351-.2.257-.484h-.712V19.27h1.751c0,.5,0,.992,0,1.488,0,.053-.071.117-.125.155a2.871,2.871,0,0,1-2.425.42,1.546,1.546,0,0,1-1.179-1.377,2.782,2.782,0,0,1,.016-.98,1.745,1.745,0,0,1,2.012-1.394c.134,0,.268.012.4.02A1.282,1.282,0,0,1,143.961,18.633Z"/><path class="cls-18" d="M136.716,10.006V6.313h3.047v.776h-1.885v.585h1.748v.762H137.88v.732h1.943v.838Z"/><path class="cls-12" d="M126.974,13.522H128.7c.023.041.037.056.038.071.05.708.05.708-.65.708-.3,0-.59.014-.883-.005-.222-.014-.284.072-.263.276.013.131,0,.264,0,.428H128.9v.85h-3.072v-3.7h3.021v.776h-1.434C126.888,12.929,126.888,12.929,126.974,13.522Z"/><path class="cls-15" d="M134.153,13.19c-.325.019-.617.047-.909.045a.321.321,0,0,1-.222-.153.518.518,0,0,0-.621-.289c-.108.035-.187.157-.279.239.081.089.146.225.246.259.37.128.758.2,1.126.332a1.065,1.065,0,0,1,.751,1.3,1.093,1.093,0,0,1-.041.122,1.248,1.248,0,0,1-1.137.844,4.529,4.529,0,0,1-1.246-.067c-.541-.106-.823-.509-.915-1.186l1.062-.079c.037.1.065.182.1.262a.622.622,0,0,0,.877.293.334.334,0,0,0-.007-.6c-.249-.111-.526-.16-.784-.254a3.257,3.257,0,0,1-.681-.3.954.954,0,0,1,0-1.6,2.132,2.132,0,0,1,1.414-.275,2.212,2.212,0,0,1,.419.079A1.1,1.1,0,0,1,134.153,13.19Z"/><path class="cls-18" d="M107,10.016h-1.157c-.021-.05-.046-.1-.062-.147-.15-.459-.149-.459-.619-.459h-.107c-.223,0-.49-.068-.655.031-.144.088-.174.365-.261.573h-1.149c.3-.8.591-1.58.884-2.361.147-.392.287-.786.45-1.17a.336.336,0,0,1,.234-.177,7.239,7.239,0,0,1,.908,0,.28.28,0,0,1,.214.133c.446,1.161.882,2.327,1.319,3.493A.3.3,0,0,1,107,10.016Zm-2-2.739-.4,1.3h.8Z"/><path class="cls-18" d="M123.3,10.017h-1.166c-.01-.023-.026-.052-.037-.082-.187-.525-.187-.525-.761-.525h-.187c-.49,0-.486,0-.651.452-.024.066-.107.152-.166.155-.336.015-.672.007-1.053.007l.414-1.1c.3-.807.61-1.613.906-2.423.054-.148.118-.214.283-.206.285.015.571-.009.855.012a.336.336,0,0,1,.249.159c.439,1.136.863,2.278,1.29,3.419A.959.959,0,0,1,123.3,10.017ZM121.7,8.584l-.407-1.31-.389,1.31Z"/><path class="cls-14" d="M112.584,21.357c-.36,0-.706.013-1.05-.01-.069-.005-.167-.142-.184-.23-.053-.283-.186-.414-.486-.365a2.428,2.428,0,0,1-.4,0c-.494,0-.491,0-.674.457-.024.059-.1.136-.156.138-.336.013-.673.006-1.04.006.034-.114.054-.2.085-.28.4-1.066.806-2.13,1.2-3.2a.3.3,0,0,1,.346-.235c.275.016.553-.008.828.011a.311.311,0,0,1,.229.151c.435,1.129.857,2.263,1.281,3.4A.835.835,0,0,1,112.584,21.357Zm-1.975-2.663h-.054l-.368,1.231h.8Z"/><path class="cls-9" d="M80.853,11.35V10.344h8.092V11.35Z"/><path class="cls-18" d="M134.557,7.4l-.941.213a2.321,2.321,0,0,0-.421-.425.675.675,0,0,0-1,.5,3.773,3.773,0,0,0,0,1.007.6.6,0,0,0,.586.529.639.639,0,0,0,.693-.391c.045-.1.079-.2.13-.323l.96.286a1.433,1.433,0,0,1-1.357,1.282,4.047,4.047,0,0,1-.642,0A1.664,1.664,0,0,1,131,8.436a3.394,3.394,0,0,1,.02-.747,1.75,1.75,0,0,1,1.99-1.472c.049.008.1.017.147.029A1.539,1.539,0,0,1,134.557,7.4Z"/><path class="cls-19" d="M118.026,6.3l-1.382,3.727c-.375,0-.732.007-1.088,0a.256.256,0,0,1-.2-.117c-.45-1.172-.89-2.348-1.331-3.523a.114.114,0,0,1,.011-.066H115.2l.832,2.647c.253-.818.5-1.568.713-2.328.072-.259.172-.372.452-.341A8.108,8.108,0,0,0,118.026,6.3Z"/><path class="cls-14" d="M88.957,8.855c0,.249.01.48-.007.709,0,.057-.088.124-.15.157a.462.462,0,0,1-.185.005H80.863V8.855Z"/><path class="cls-9" d="M88.953,12.843H80.86v-.835h8.093Z"/><path class="cls-10" d="M138.462,15.85h-1.139V13.08h-1.166v-.93h3.454v.913h-1.149Z"/><path class="cls-16" d="M147.9,18.887c.224-.373.428-.727.649-1.07a.36.36,0,0,1,.236-.162c.355-.018.712-.008,1.111-.008-.052.092-.085.158-.125.219-.4.593-.8,1.183-1.185,1.781a.744.744,0,0,0-.111.37c-.014.435-.006.87-.006,1.323H147.33c0-.425.013-.85-.006-1.274a.994.994,0,0,0-.144-.465c-.408-.636-.834-1.261-1.291-1.946.447,0,.841-.005,1.233.007.047,0,.1.092.135.15C147.469,18.161,147.678,18.511,147.9,18.887Z"/><path class="cls-20" d="M129.59,17.658h1.131v2.777h1.77v.907h-2.9Z"/><path class="cls-15" d="M111.016,15.853h-1.148c-.007-.08-.018-.148-.018-.216,0-1.08,0-2.159-.006-3.238,0-.213.062-.287.273-.273.231.015.465-.008.7.01.071.006.2.091.2.141C111.019,13.461,111.016,14.645,111.016,15.853Z"/><path class="cls-9" d="M120.194,17.658h1.1v3.684h-1.1Z"/><path class="cls-2" d="M52.328,11.444l.221.609-7.836-.006c-.547,0-.547,0-.673-.6Z"/><path class="cls-2" d="M51.848,9.738l.219.6L44.5,10.332c-.552,0-.552,0-.67-.6Z"/><path class="cls-21" d="M51.422,8.243l.216.612L46.37,8.847c-.749,0-1.5-.014-2.247.008-.278.008-.438-.059-.48-.345a1.8,1.8,0,0,0-.093-.267Z"/><path class="cls-21" d="M104.551,19.17v-.754c.243,0,.489-.017.732,0a.3.3,0,0,1,.284.315v.015a.309.309,0,0,1-.266.345C105.059,19.135,104.814,19.145,104.551,19.17Z"/><path class="cls-21" d="M110.13,7.142h.264c.533.012.749.187.806.718a3.418,3.418,0,0,1-.024.821.519.519,0,0,1-.5.475c-.175.016-.353,0-.546,0Z"/><path class="cls-2" d="M114.576,13.014c.761-.139,1.149.237,1.094,1.046,0,.044-.019.088-.019.132-.012.828-.455.869-1.075.8Z"/><path class="cls-22" d="M143.189,7.145c.137,0,.253-.008.367,0,.437.034.64.2.7.628a3.157,3.157,0,0,1,0,.824c-.054.412-.247.558-.67.572h-.394Z"/><path class="cls-2" d="M126.257,19.519a3.888,3.888,0,0,1-.056.456.734.734,0,0,1-1.435.006,3,3,0,0,1,0-.926.662.662,0,0,1,.718-.6h.011a.7.7,0,0,1,.725.616A4.205,4.205,0,0,1,126.257,19.519Z"/><path class="cls-22" d="M115.7,20.5c0-.637,0-1.258.007-1.879a.2.2,0,0,1,.14-.137c.621-.012.918.13.961.785a3.133,3.133,0,0,1-.022.691.555.555,0,0,1-.568.542.34.34,0,0,1-.045,0C116.021,20.509,115.873,20.5,115.7,20.5Z"/><path class="cls-21" d="M137.07,19.514c-.022.156-.034.317-.069.472a.655.655,0,0,1-.723.57.668.668,0,0,1-.715-.586,3.314,3.314,0,0,1-.007-.873.673.673,0,0,1,.695-.64.7.7,0,0,1,.76.6C137.044,19.206,137.05,19.359,137.07,19.514Z"/><path class="cls-22" d="M105,7.277l.4,1.3h-.8Z"/><path class="cls-22" d="M121.693,8.584h-.8l.389-1.31Z"/><path class="cls-23" d="M110.609,18.694l.38,1.235h-.8l.368-1.231Z"/></g></g></svg>