<svg id="Layer_1" data-name="Layer 1" xmlns="http://www.w3.org/2000/svg" viewBox="0 0 424.468 92.19"><defs><style>.cls-1{fill:#094679;}.cls-2{fill:#245384;}.cls-3{fill:#fff;}.cls-4{fill:none;stroke:#245384;stroke-miterlimit:10;stroke-width:2.771px;}.cls-5{fill:#488dc6;}.cls-6{fill:#86a3b7;}.cls-7{fill:#86a2b6;}.cls-8{fill:#5595b5;}.cls-9{fill:#87a3b7;}.cls-10{fill:#245c8d;}.cls-11{fill:#5695b6;}.cls-12{fill:#5595b6;}.cls-13{fill:#4a8ec7;}.cls-14{fill:#87a4b7;}.cls-15{fill:#5796b6;}.cls-16{fill:#498dc7;}.cls-17{fill:#498ec7;}.cls-18{fill:#255d8d;}.cls-19{fill:#5897b7;}.cls-20{fill:#265e8e;}.cls-21{fill:#5594b5;}.cls-22{fill:#4b8fc7;}</style></defs><title>logo2</title><rect class="cls-1" y="50.379" width="75.877" height="2.407"/><rect class="cls-1" x="35.748" y="29.49" width="29.978" height="19.919"/><rect class="cls-1" x="66.45" y="29.503" width="8.575" height="19.922"/><path class="cls-2" d="M-9.07-203.886a23.033,23.033,0,0,0-16.417,6.852,18.407,18.407,0,0,1,10.177-3.058,18.5,18.5,0,0,1,18.5,18.5,18.5,18.5,0,0,1-18.5,18.5,18.435,18.435,0,0,1-13.811-6.221A23.086,23.086,0,0,0-9.07-157.664a23.111,23.111,0,0,0,23.111-23.111A23.111,23.111,0,0,0-9.07-203.886Z" transform="translate(62.18 203.886)"/><path class="cls-3" d="M-32.181-180.775a23.031,23.031,0,0,1,6.694-16.259,18.475,18.475,0,0,0-8.323,15.441" transform="translate(62.18 203.886)"/><path class="cls-3" d="M-29.121-169.314" transform="translate(62.18 203.886)"/><circle class="cls-4" cx="46.073" cy="22.037" r="16.447"/><rect class="cls-1" x="4.055" y="29.734" width="47.852" height="2.167"/><rect class="cls-1" x="4.149" y="32.103" width="24.196" height="2.167"/><rect class="cls-1" x="4.226" y="34.561" width="24.196" height="2.167"/><rect class="cls-1" x="4.226" y="37.124" width="24.196" height="2.167"/><rect class="cls-1" x="4.226" y="39.639" width="24.196" height="2.167"/><rect class="cls-1" x="4.226" y="42.253" width="24.196" height="2.167"/><rect class="cls-1" x="4.226" y="44.984" width="24.196" height="2.167"/><path class="cls-1" d="M27.545,21.027H38.079a4.248,4.248,0,0,1,4.248,4.248v0a4.248,4.248,0,0,1-4.248,4.248H27.544A4.247,4.247,0,0,1,23.3,25.275v0a4.248,4.248,0,0,1,4.248-4.248Z"/><circle class="cls-1" cx="47.515" cy="25.052" r="4.636"/><path class="cls-1" d="M-43.324-176.333l-12.851,1.993a2.438,2.438,0,0,1-2.782-2.037v0h0a2.436,2.436,0,0,1,2.033-2.782h0l12.343-1.893a2.917,2.917,0,0,1,3.292,1.935h0a2.44,2.44,0,0,1-2.034,2.788Z" transform="translate(62.18 203.886)"/><path class="cls-1" d="M-35.37-176.123l-2.024.6-10.423-.6,3.293-4.9,5.027-.209,4.378-.248v5.1a.254.254,0,0,1-.249.259Z" transform="translate(62.18 203.886)"/><path class="cls-1" d="M-31.243-178.8h7.987a1.682,1.682,0,0,1,1.682,1.68v.867a1.062,1.062,0,0,1-1.062,1.062h-9.027a1.709,1.709,0,0,1-1.133-.429l-6.938-6.114s-.684-.488.293-1.363.781-1.172,2.051-.683S-31.243-178.8-31.243-178.8Z" transform="translate(62.18 203.886)"/><rect class="cls-1" y="47.059" width="51.907" height="2.377"/><path class="cls-5" d="M146.493-183.5v-19.944c.29-.015.5-.035.714-.035q7.231.018,14.468.045c4.3.019,8.595-.038,12.884.109a20.609,20.609,0,0,1,14.9,6.329,22.165,22.165,0,0,1,5.921,12.445,23.805,23.805,0,0,1-3.02,15.508,36,36,0,0,1-2.456,3.306l9.788,14.471c-.264.025-.443.057-.62.057q-9.931,0-19.862.015a1.086,1.086,0,0,1-.991-.586q-5.614-8.147-11.246-16.278c-.141-.205-.287-.408-.544-.77-.085,5.98-.168,11.753-.248,17.572H146.344v-19.327a3.846,3.846,0,0,1,.392-.05q9.566-.031,19.131-.054c1.948,0,3.894.071,5.841.062a6.442,6.442,0,0,0,6.882-5.971,6.442,6.442,0,0,0-5.971-6.882c-.152-.011-.305-.016-.457-.016-8.3-.024-16.61-.007-24.915-.007Z" transform="translate(62.18 203.886)"/><path class="cls-6" d="M121.521-183.747H108.814c-1.042,0-1.284.248-1.337,1.457h.782q6.5,0,13.021-.01c.477,0,.72.107.791.619s.242,1.015.4,1.64H107.715c-1.149,0-1.316.162-1.421,1.455h.78c5.02,0,10.036.009,15.061-.011.534,0,.788.124.877.682.113.7.331,1.387.526,2.171H106.476c-1.363,0-1.363,0-1.621,1.487h.783c5.854,0,11.707.007,17.561-.011.525,0,.813.106.883.67.063.5.215.973.347,1.553h-.83c-6.139,0-12.276.016-18.415-.022a1.145,1.145,0,0,0-1.32.937v0c-1.758,5.272-3.567,10.53-5.359,15.789-.439,1.284-.9,2.563-1.309,3.855a.655.655,0,0,1-.743.537q-8.616-.018-17.232,0a.634.634,0,0,1-.729-.469q-3.33-9.338-6.69-18.666c-.051-.138-.072-.287-.124-.5h.761c4.91,0,9.821-.008,14.732.011.51,0,.7-.154.829-.653q4.125-15.846,8.27-31.676a.762.762,0,0,1,.817-.7c.023,0,.046,0,.068.009q9.438.031,18.875,0a.641.641,0,0,1,.745.518c0,.022.007.044.009.067q2.319,9.426,4.664,18.848C121.473-184.053,121.485-183.948,121.521-183.747Z" transform="translate(62.18 203.886)"/><path class="cls-1" d="M58.778-172.01c-.262.012-.524.03-.786.03H37.762c-1.174,2.762-2.372,5.575-3.567,8.389-1.683,3.964-3.372,7.929-5.037,11.9a.829.829,0,0,1-.912.6c-5.04-.023-10.081-.014-15.122-.014h-.657c.07-.23.112-.412.177-.586q9.6-25.614,19.182-51.231a.756.756,0,0,1,.844-.588q8.284.027,16.569,0c.487,0,.666.15.8.62q2.637,9.376,5.317,18.742c.03.1.077.2.116.3l.012.358H36.145a4.13,4.13,0,0,1,.228.655c.1.7.5.867,1.181.846,1.837-.053,3.678-.019,5.517-.017q6.471.007,12.94.02l.516,2.167H36.821c.289,1.47.289,1.469,1.645,1.47l18.6.014.641,2.707H37.345c.309,1.487.309,1.479,1.651,1.487l19.247.016Z" transform="translate(62.18 203.886)"/><path class="cls-6" d="M57.705-175.626l-.641-2.707-.537-1.487-.516-2.167-.53-1.5-.012-.358c.354-1.416.728-2.826,1.058-4.247q1.734-7.475,3.444-14.956c.1-.425.3-.539.721-.537q9.209.021,18.415,0c.382,0,.6.079.7.486q2.338,9.524,4.7,19.044a1.769,1.769,0,0,1,.016.317H75.7c-1.332,0-1.332,0-1.574,1.454H75.9c2.806,0,5.612.012,8.424-.011.486,0,.714.124.784.62.075.515.232,1.018.372,1.631h-.743c-3.469,0-6.928.031-10.391-.023-.79-.013-1.179.225-1.319.966a6.042,6.042,0,0,1-.179.584h.768c3.86,0,7.717.008,11.575-.01.5,0,.756.105.843.643.111.684.323,1.351.519,2.138H73.3c-1.376,0-1.376,0-1.685,1.46h.7c4.648,0,9.292.008,13.943-.012.509,0,.752.124.825.655a15.97,15.97,0,0,0,.386,1.6h-.71q-7.037-.012-14.074-.028c-1.644,0-1.625,0-2.1,1.564q-2.808,9.265-5.64,18.521a3.754,3.754,0,0,1-.213.471,3.6,3.6,0,0,1-.276-.565q-1.882-6.606-3.749-13.216c-.483-1.719-.94-3.445-1.409-5.169l-.521-1.54-.529-2.119Z" transform="translate(62.18 203.886)"/><path class="cls-1" d="M59.3-170.46c.468,1.724.925,3.449,1.408,5.169q1.858,6.611,3.749,13.216a3.606,3.606,0,0,0,.277.565c-.118.094-.236.27-.355.27-6.769.012-13.539,0-20.309.017-.441,0-.64-.1-.761-.56Q40.9-160.951,38.45-170.1c-.028-.1-.037-.212-.06-.347.172-.015.321-.039.47-.039H58.907C59.038-170.486,59.169-170.468,59.3-170.46Z" transform="translate(62.18 203.886)"/><path class="cls-7" d="M127.7-151.24l-15.388.019a12.238,12.238,0,0,0-1.446.013c-.661.079-.941-.154-1.123-.813-1.651-5.965-3.345-11.92-5.024-17.877-.058-.207-.089-.422-.146-.692h.689q9.437,0,18.876-.01c.486,0,.718.094.846.63.785,3.274,1.618,6.537,2.441,9.8.063.248.172.488.259.732Q127.689-155.335,127.7-151.24Z" transform="translate(62.18 203.886)"/><path class="cls-8" d="M143.853-203.431v19.905H127.712v-19.9Z" transform="translate(62.18 203.886)"/><path class="cls-8" d="M127.7-151.24q-.007-4.1-.016-8.195v-11.219h16.163v19.327a.526.526,0,0,1-.171.063Q135.683-151.249,127.7-151.24Z" transform="translate(62.18 203.886)"/><path class="cls-9" d="M247.453-185.206c-.5,1.775-.965,3.433-1.4,5.1-.113.424-.272.62-.744.584-.715-.049-1.436-.013-2.193-.013-.679-3.05-1.345-6.049-2.038-9.168.859,0,1.655-.021,2.45.021.117.007.285.29.32.467.294,1.449.562,2.9.936,4.374.248-.867.5-1.746.743-2.62.153-.547.315-1.093.435-1.647a.658.658,0,0,1,.689-.625c.021,0,.041,0,.062.006,2.106-.019,2.106-.034,2.649,2a25.525,25.525,0,0,0,.9,2.861c.275-1.451.536-2.905.84-4.35a.709.709,0,0,1,.448-.476c.737-.051,1.481-.022,2.306-.022-.681,3.1-1.347,6.11-2.022,9.168-.852,0-1.66.023-2.464-.02-.15-.009-.363-.261-.416-.44-.445-1.509-.859-3.026-1.284-4.542C247.613-184.725,247.549-184.908,247.453-185.206Z" transform="translate(62.18 203.886)"/><path class="cls-9" d="M208.6-183.339c.4-1.544.816-3.08,1.171-4.633.131-.581.371-.79.971-.751.808.053,1.623-.011,2.431.031.183.01.5.248.506.385.03,2.889.023,5.778.023,8.72H211.4v-6.4l-.143-.02-.936,3.646c-.189.743-.385,1.487-.548,2.23-.092.414-.24.62-.733.61-1.527-.025-1.527,0-1.913-1.512-.422-1.648-.845-3.3-1.387-4.936v6.387h-2.252v-9.128c1.147,0,2.26-.021,3.37.024.146,0,.348.34.406.553.428,1.582.827,3.173,1.239,4.76Z" transform="translate(62.18 203.886)"/><path class="cls-10" d="M259.909-193.912h-2.641v-9.122c.8,0,1.565-.026,2.324.018a.887.887,0,0,1,.534.392c.911,1.313,1.8,2.64,2.7,3.964.116.172.247.332.472.631V-203h2.618v9.116c-.813,0-1.6.024-2.378-.02a.88.88,0,0,1-.525-.4c-1.011-1.454-2-2.922-3.1-4.537Z" transform="translate(62.18 203.886)"/><path class="cls-11" d="M332.258-169.939v4.695h-2.6V-174.3c.808,0,1.611-.026,2.408.022.18.009.385.247.511.431.9,1.293,1.781,2.6,2.669,3.9.1.154.217.3.431.6v-4.91h2.614v9.062c-.811,0-1.6.028-2.375-.018-.182-.011-.395-.237-.519-.415-.888-1.275-1.756-2.563-2.633-3.847-.124-.175-.248-.343-.371-.515Z" transform="translate(62.18 203.886)"/><path class="cls-11" d="M219.63-165.193c-.8,0-1.542.03-2.28-.02a.945.945,0,0,1-.592-.4c-1.015-1.451-2.005-2.918-3.107-4.533v4.9h-2.634v-9.044c.812,0,1.635-.022,2.453.02.16.007.334.248.452.419.881,1.28,1.748,2.569,2.623,3.854.117.175.248.341.464.639v-4.889h2.621Z" transform="translate(62.18 203.886)"/><path class="cls-12" d="M292.752-174.261v9.067c-.811,0-1.6.031-2.374-.021a.973.973,0,0,1-.57-.444c-.991-1.435-1.972-2.883-3.055-4.476v4.89h-2.63V-174.3c.812,0,1.61-.028,2.414.021.176.012.372.274.5.46.991,1.438,1.973,2.888,3.078,4.51v-4.956Z" transform="translate(62.18 203.886)"/><path class="cls-13" d="M206.344-154.516v3.616h-2.819v-8.958c.017-.016.05-.068.081-.068,2.012.014,4.029-.054,6.032.083a2.142,2.142,0,0,1,2.087,2.147,2.507,2.507,0,0,1-1.61,2.652c-.124.051-.248.1-.405.159,1.574.884,1.858,2.6,2.785,4.039-1.072,0-2.008.021-2.943-.02-.176-.008-.4-.231-.5-.409-.481-.834-.917-1.692-1.39-2.53C207.324-154.385,207.119-154.49,206.344-154.516Zm.033-1.705c.645-.059,1.249-.085,1.841-.181a.761.761,0,0,0,.652-.848.745.745,0,0,0-.675-.807h-.02c-.595-.056-1.2-.014-1.8-.014Z" transform="translate(62.18 203.886)"/><path class="cls-10" d="M217.256-202.934c1.817,0,3.593-.117,5.348.035a3.028,3.028,0,0,1,2.748,2.626,10,10,0,0,1,.124,3.246,3.52,3.52,0,0,1-3.707,3.123c-1.288.07-2.582.019-3.873.023h-.636Zm2.828,1.974V-196c.474,0,.91.032,1.34-.007a1.272,1.272,0,0,0,1.227-1.166,8.364,8.364,0,0,0,.061-2.018c-.141-1.3-.671-1.735-1.982-1.762C220.533-200.964,220.332-200.96,220.084-200.96Z" transform="translate(62.18 203.886)"/><path class="cls-11" d="M247.691-174.266c2,0,3.926-.041,5.851.014a2.272,2.272,0,0,1,2.279,1.894,2.513,2.513,0,0,1-1.584,2.974c-.123.048-.235.1-.371.161,1.574.883,1.832,2.609,2.8,4.031-1.093,0-2.028.022-2.96-.018a.8.8,0,0,1-.5-.4c-.468-.817-.9-1.657-1.35-2.478a1.188,1.188,0,0,0-1.386-.744v3.6H247.69Zm2.814,1.822v1.869c.586-.047,1.142-.082,1.7-.14a.818.818,0,0,0,.838-.8.921.921,0,0,0,0-.1c-.025-.6-.433-.818-.979-.826C251.576-172.451,251.1-172.444,250.505-172.444Z" transform="translate(62.18 203.886)"/><path class="cls-14" d="M228.127-179.452c-.021-.349-.042-.54-.042-.732,0-2.6.011-5.212-.012-7.817,0-.531.124-.744.692-.719,1.311.056,2.627.014,3.936.092a3.381,3.381,0,0,1,3.652,3.089c0,.061.009.123.011.185a8.875,8.875,0,0,1-.124,3.175,2.914,2.914,0,0,1-2.546,2.432C231.866-179.54,230.009-179.542,228.127-179.452ZM231-186.541v4.849c1.523.177,2.612.078,2.641-1.956,0-.108.039-.215.047-.323C233.824-185.955,232.87-186.878,231-186.541Z" transform="translate(62.18 203.886)"/><path class="cls-10" d="M298.452-193.907V-202.9c1.858,0,3.7-.113,5.512.039a2.972,2.972,0,0,1,2.5,2.238,6.623,6.623,0,0,1,.1,4.133,3.469,3.469,0,0,1-3.428,2.569C301.6-193.85,300.046-193.907,298.452-193.907Zm2.827-7.046v4.975c.356,0,.662.009.966,0,1.04-.036,1.514-.392,1.648-1.405a7.7,7.7,0,0,0,0-2.024c-.142-1.057-.642-1.459-1.713-1.542-.28-.023-.565,0-.9,0Z" transform="translate(62.18 203.886)"/><path class="cls-13" d="M257.8-150.7c-3.078-.018-4.757-1.709-4.738-4.77a4.733,4.733,0,0,1,4.8-4.665,4.733,4.733,0,0,1,4.665,4.8,4.24,4.24,0,0,1-3.79,4.646A4.176,4.176,0,0,1,257.8-150.7Zm1.895-4.664a9.614,9.614,0,0,0-.1-1.1,1.734,1.734,0,0,0-1.78-1.512,1.628,1.628,0,0,0-1.79,1.448l0,.021a7.48,7.48,0,0,0,.009,2.275,1.8,1.8,0,0,0,2.157,1.365,1.8,1.8,0,0,0,1.369-1.382A9.775,9.775,0,0,0,259.691-155.362Z" transform="translate(62.18 203.886)"/><path class="cls-15" d="M320.838-165.047c-3.042-.012-4.765-1.715-4.755-4.7a4.365,4.365,0,0,1,3.94-4.752,4.406,4.406,0,0,1,.8,0c3.049.017,4.727,1.728,4.715,4.806C325.53-166.681,323.862-165.034,320.838-165.047Zm1.924-4.861a9.5,9.5,0,0,0-.229-1.2,1.633,1.633,0,0,0-1.735-1.212,1.536,1.536,0,0,0-1.662,1.2,8.211,8.211,0,0,0-.041,2.585,1.625,1.625,0,0,0,1.839,1.379l.091-.016a1.673,1.673,0,0,0,1.6-1.542C322.685-169.054,322.707-169.4,322.762-169.908Z" transform="translate(62.18 203.886)"/><path class="cls-16" d="M231-159.9c1.759,0,3.491-.1,5.2.031a3.073,3.073,0,0,1,2.876,2.654,10.8,10.8,0,0,1,.105,3.371,3.423,3.423,0,0,1-3.423,2.962c-1.566.093-3.143.02-4.761.02Zm2.755,6.959c.434,0,.8.017,1.161,0a1.363,1.363,0,0,0,1.5-1.213c0-.036.006-.072.007-.109a7.735,7.735,0,0,0,.056-1.7c-.107-1.61-.836-1.957-2.36-1.928a.5.5,0,0,0-.346.339c-.023,1.519-.016,3.044-.016,4.608Z" transform="translate(62.18 203.886)"/><path class="cls-13" d="M284.294-150.7a4.04,4.04,0,0,1-4.244-2.411,5.33,5.33,0,0,1,.575-5.532c1.373-1.794,4.46-1.728,6.013-1.054a4.3,4.3,0,0,1,2.387,4.625,6.841,6.841,0,0,1-.673,2.429A4.077,4.077,0,0,1,284.294-150.7Zm1.956-4.676c-.049-.381-.063-.755-.146-1.115a1.712,1.712,0,0,0-1.859-1.486,1.652,1.652,0,0,0-1.708,1.572,8.178,8.178,0,0,0,.018,2.143,1.638,1.638,0,0,0,1.756,1.44,1.61,1.61,0,0,0,1.775-1.4C286.166-154.6,286.2-154.991,286.25-155.375Z" transform="translate(62.18 203.886)"/><path class="cls-17" d="M303.175-157.538l-2.655.483A1.665,1.665,0,0,0,299-158.1a1.8,1.8,0,0,0-2,1.516,6.419,6.419,0,0,0-.115,1.76c.15,1.822,1.487,2.58,3.235,1.905.548-.212.867-.5.631-1.188h-1.748v-1.858h4.3c0,1.214.008,2.434-.014,3.653,0,.124-.174.289-.306.381a7.058,7.058,0,0,1-5.957,1.032,3.8,3.8,0,0,1-2.9-3.383,6.855,6.855,0,0,1,.04-2.407c.472-2.341,2.249-3.531,4.943-3.424.328.012.656.029.985.049A3.15,3.15,0,0,1,303.175-157.538Z" transform="translate(62.18 203.886)"/><path class="cls-18" d="M285.375-193.926v-9.069h7.486v1.9H288.23v1.436h4.292v1.874h-4.289v1.8h4.774v2.059Z" transform="translate(62.18 203.886)"/><path class="cls-19" d="M279.951-165.219h-7.628v-9.032h7.5v1.875h-4.628v1.424h4.277v1.907H275.18v1.75h4.771Z" transform="translate(62.18 203.886)"/><path class="cls-19" d="M235.873-165.231v-9.032h7.448c.045.059.067.075.07.094.239,1.825.239,1.825-1.55,1.825h-3.105v1.378h4.288v1.9h-4.275v1.769h4.777v2.062Z" transform="translate(62.18 203.886)"/><path class="cls-9" d="M261.453-185.291h4.233c.056.1.092.138.094.176.124,1.735.124,1.735-1.6,1.735-.723,0-1.448.036-2.168-.011-.545-.035-.7.177-.648.678.034.321,0,.65,0,1.051h4.805v2.089h-7.545v-9.074h7.421v1.908H262.53C261.24-186.745,261.24-186.745,261.453-185.291Z" transform="translate(62.18 203.886)"/><path class="cls-14" d="M279.085-186.106c-.8.046-1.515.117-2.23.11a.79.79,0,0,1-.545-.371,1.272,1.272,0,0,0-1.526-.711c-.264.086-.459.385-.685.587.2.219.359.552.605.637.907.312,1.859.5,2.766.814a2.618,2.618,0,0,1,1.85,3.208,2.507,2.507,0,0,1-.1.3,3.07,3.07,0,0,1-2.8,2.073,11.124,11.124,0,0,1-3.058-.166c-1.331-.261-2.022-1.249-2.248-2.914l2.609-.192c.091.248.158.447.239.642a1.528,1.528,0,0,0,2.01.793,1.529,1.529,0,0,0,.146-.073,1.019,1.019,0,0,0,.455-.714,1.018,1.018,0,0,0-.473-.763c-.612-.273-1.291-.394-1.927-.62a8.074,8.074,0,0,1-1.67-.735,2.345,2.345,0,0,1-.695-3.242,2.353,2.353,0,0,1,.688-.689,5.233,5.233,0,0,1,3.468-.674,5.607,5.607,0,0,1,1.029.193A2.7,2.7,0,0,1,279.085-186.106Z" transform="translate(62.18 203.886)"/><path class="cls-18" d="M212.387-193.9h-2.833c-.054-.124-.114-.239-.154-.362-.372-1.127-.372-1.127-1.521-1.127h-.263c-.546.007-1.2-.166-1.611.078-.355.214-.428.9-.641,1.406h-2.821c.733-1.963,1.45-3.882,2.17-5.8.361-.962.705-1.929,1.1-2.874a.829.829,0,0,1,.574-.439,18.435,18.435,0,0,1,2.23,0,.691.691,0,0,1,.525.327c1.1,2.849,2.166,5.716,3.239,8.579A.711.711,0,0,1,212.387-193.9Zm-4.917-6.726-.974,3.192h1.951Z" transform="translate(62.18 203.886)"/><path class="cls-18" d="M252.431-193.9h-2.86a2.136,2.136,0,0,1-.091-.2c-.46-1.289-.46-1.289-1.868-1.289h-.46c-1.2,0-1.195,0-1.6,1.115-.058.16-.262.371-.407.379-.824.036-1.65.017-2.586.017.361-.96.688-1.833,1.016-2.707.744-1.982,1.5-3.964,2.23-5.947.132-.361.289-.525.695-.505.7.036,1.4-.021,2.1.028a.831.831,0,0,1,.612.392c1.077,2.791,2.12,5.595,3.168,8.4A2.347,2.347,0,0,1,252.431-193.9Zm-3.951-3.518-1-3.221-.957,3.221Z" transform="translate(62.18 203.886)"/><path class="cls-15" d="M351.569-165.219h-2.82a.959.959,0,0,1-.079-.13c-.16-.425-.2-1.046-.5-1.225-.372-.223-.972-.083-1.472-.1h-.46c-1.142,0-1.126,0-1.51,1.06a.745.745,0,0,1-.523.4c-.784.044-1.572.018-2.417.018a5.237,5.237,0,0,1,.137-.518c1-2.681,2.02-5.357,3.007-8.043a.693.693,0,0,1,.8-.561c.7.042,1.4-.012,2.1.026a.712.712,0,0,1,.531.327c1.08,2.815,2.133,5.64,3.189,8.464A1.132,1.132,0,0,1,351.569-165.219Zm-3.91-3.469-1-3.277-.977,3.277Z" transform="translate(62.18 203.886)"/><path class="cls-13" d="M226.108-150.848c-.883,0-1.735.033-2.578-.026-.17-.011-.412-.347-.452-.563-.132-.695-.459-1.019-1.193-.9a6.218,6.218,0,0,1-.984.009c-1.214,0-1.207,0-1.657,1.121a.585.585,0,0,1-.381.34c-.827.031-1.654.015-2.555.015.084-.281.133-.495.208-.687.982-2.619,1.983-5.233,2.943-7.86a.729.729,0,0,1,.85-.576c.676.041,1.362-.019,2.034.027a.765.765,0,0,1,.562.372c1.068,2.774,2.107,5.56,3.146,8.344A2.04,2.04,0,0,1,226.108-150.848Zm-4.85-6.542-.134.01-.905,3.024h1.972Z" transform="translate(62.18 203.886)"/><path class="cls-5" d="M146.416-175.856v-2.472h19.876v2.472Z" transform="translate(62.18 203.886)"/><path class="cls-18" d="M280.079-200.337l-2.313.524a5.689,5.689,0,0,0-1.035-1.045,1.657,1.657,0,0,0-2.257.626,1.654,1.654,0,0,0-.2.6,9.262,9.262,0,0,0,.009,2.478,1.462,1.462,0,0,0,1.439,1.3,1.574,1.574,0,0,0,1.7-.968c.112-.234.2-.48.321-.793l2.354.7a3.528,3.528,0,0,1-3.334,3.15,9.643,9.643,0,0,1-1.576,0,4.087,4.087,0,0,1-3.84-4.013,8.282,8.282,0,0,1,.049-1.835c.43-2.55,2.464-3.879,5.249-3.544A3.783,3.783,0,0,1,280.079-200.337Z" transform="translate(62.18 203.886)"/><path class="cls-20" d="M239.475-203.036c-1.162,3.134-2.278,6.139-3.395,9.156-.921,0-1.8.015-2.672-.014a.636.636,0,0,1-.482-.288c-1.1-2.878-2.187-5.765-3.27-8.652-.012-.033.013-.081.029-.162h2.849c.659,2.1,1.327,4.222,2.043,6.5.62-2.009,1.225-3.852,1.751-5.719.177-.633.423-.913,1.115-.837A19.129,19.129,0,0,0,239.475-203.036Z" transform="translate(62.18 203.886)"/><path class="cls-15" d="M258.959-174.3c.938,0,1.77-.026,2.6.022.173.01.416.269.479.461.632,1.932,1.239,3.874,1.9,5.994.135-.391.222-.619.295-.859.529-1.713,1.066-3.424,1.575-5.144a.552.552,0,0,1,.638-.483c.743.028,1.487.009,2.325.009-.075.274-.115.476-.185.667-.969,2.627-1.954,5.248-2.9,7.883a.709.709,0,0,1-.821.574l-.04-.008a6.211,6.211,0,0,0-.722,0c-1.724,0-1.725,0-2.318-1.578q-1.305-3.47-2.6-6.938C259.11-173.874,259.056-174.036,258.959-174.3Z" transform="translate(62.18 203.886)"/><path class="cls-13" d="M166.322-181.987c0,.62.024,1.181-.018,1.742-.011.142-.215.306-.371.387a1.105,1.105,0,0,1-.454.012H146.441v-2.141Z" transform="translate(62.18 203.886)"/><path class="cls-5" d="M166.316-172.189H146.433v-2.052h19.883Z" transform="translate(62.18 203.886)"/><path class="cls-21" d="M143.854-178.327v2.463H127.721v-2.463Z" transform="translate(62.18 203.886)"/><path class="cls-6" d="M289.669-179.571h-2.8v-6.8h-2.86v-2.284H292.5v2.242h-2.821Z" transform="translate(62.18 203.886)"/><path class="cls-16" d="M312.858-156.913c.55-.917,1.051-1.787,1.592-2.631a.892.892,0,0,1,.581-.4c.867-.045,1.748-.019,2.726-.019-.124.224-.209.388-.309.538-.971,1.457-1.957,2.9-2.909,4.373a1.854,1.854,0,0,0-.274.91c-.033,1.067-.013,2.137-.013,3.249h-2.808c0-1.044.031-2.089-.016-3.128a2.428,2.428,0,0,0-.353-1.144c-1-1.562-2.048-3.1-3.17-4.779,1.1,0,2.064-.013,3.029.017.115,0,.248.227.331.372C311.791-158.7,312.3-157.838,312.858-156.913Z" transform="translate(62.18 203.886)"/><path class="cls-12" d="M229.171-165.219h-2.814v-6.814h-2.85v-2.23h8.471v2.19h-2.8Z" transform="translate(62.18 203.886)"/><path class="cls-12" d="M299.478-172.054h-2.85v-2.208h8.459v2.181h-2.8v6.838h-2.81Z" transform="translate(62.18 203.886)"/><path class="cls-22" d="M267.877-159.933h2.779v6.814H275v2.23h-7.125Z" transform="translate(62.18 203.886)"/><path class="cls-8" d="M355.164-174.276h2.71v6.8h4.414v2.23h-7.124Z" transform="translate(62.18 203.886)"/><path class="cls-11" d="M127.72-182h16.119v2.071H127.72Z" transform="translate(62.18 203.886)"/><path class="cls-21" d="M127.707-172.214v-2.034h16.121v2.034Z" transform="translate(62.18 203.886)"/><path class="cls-14" d="M222.257-179.566h-2.819c-.018-.194-.046-.363-.046-.53,0-2.651.011-5.3-.014-7.951,0-.523.153-.705.672-.672.567.039,1.141-.018,1.706.026.176.014.479.223.48.345C222.264-185.439,222.257-182.532,222.257-179.566Z" transform="translate(62.18 203.886)"/><path class="cls-21" d="M206.332-165.22h-2.713v-9.037h2.713Z" transform="translate(62.18 203.886)"/><path class="cls-21" d="M311.828-165.22h-2.712v-9.037h2.712Z" transform="translate(62.18 203.886)"/><path class="cls-5" d="M244.8-159.933h2.709v9.044H244.8Z" transform="translate(62.18 203.886)"/><path class="cls-1" d="M-55.979-144.262a16.56,16.56,0,0,1,2.908-.234,4.813,4.813,0,0,1,3.279.973,3.182,3.182,0,0,1,1.032,2.45,3.443,3.443,0,0,1-.909,2.5,4.831,4.831,0,0,1-3.575,1.281,4.959,4.959,0,0,1-1.221-.109v4.692h-1.514Zm1.51,5.634a4.677,4.677,0,0,0,1.253.131c1.831,0,2.937-.9,2.937-2.5,0-1.548-1.1-2.305-2.761-2.305a7.137,7.137,0,0,0-1.429.124Z" transform="translate(62.18 203.886)"/><path class="cls-1" d="M-47.077-138.486c0-.991-.025-1.836-.07-2.614h1.337l.059,1.647h.054a2.549,2.549,0,0,1,2.338-1.838,1.771,1.771,0,0,1,.423.042v1.438a2.321,2.321,0,0,0-.519-.046A2.133,2.133,0,0,0-45.5-137.9a4.16,4.16,0,0,0-.061.713v4.483h-1.518Z" transform="translate(62.18 203.886)"/><path class="cls-1" d="M-33.976-136.984a4.11,4.11,0,0,1-3.738,4.452,3.962,3.962,0,0,1-.436.015,3.993,3.993,0,0,1-4.048-3.939c0-.128,0-.256.013-.383a4.1,4.1,0,0,1,3.729-4.437,4.016,4.016,0,0,1,.439-.015,3.965,3.965,0,0,1,4.055,3.872A3.951,3.951,0,0,1-33.976-136.984Zm-6.655.1c0,1.841,1.054,3.221,2.543,3.221,1.463,0,2.558-1.363,2.558-3.272,0-1.42-.716-3.215-2.529-3.215C-39.852-140.147-40.631-138.471-40.631-136.886Z" transform="translate(62.18 203.886)"/><path class="cls-1" d="M-31.587-141.1l1.645,4.708c.284.778.5,1.471.688,2.167h.045c.192-.7.433-1.4.7-2.167l1.641-4.708h1.6l-3.3,8.392h-1.46l-3.195-8.392Z" transform="translate(62.18 203.886)"/><path class="cls-1" d="M-22.123-143.474a.947.947,0,0,1-.944.949.946.946,0,0,1-.949-.944.946.946,0,0,1,.944-.949h.01a.918.918,0,0,1,.939.9Zm-1.7,10.766V-141.1h1.519v8.393Z" transform="translate(62.18 203.886)"/><path class="cls-1" d="M-12.525-145.028v10.159c0,.743.028,1.585.069,2.164h-1.357l-.078-1.451h-.041a3.074,3.074,0,0,1-2.849,1.642c-2.033,0-3.6-1.719-3.6-4.263-.006-2.809,1.729-4.514,3.774-4.514a2.8,2.8,0,0,1,2.531,1.274h.035v-5.011Zm-1.518,7.343a3.169,3.169,0,0,0-.064-.652,2.257,2.257,0,0,0-2.209-1.757c-1.581,0-2.527,1.386-2.527,3.23,0,1.705.849,3.121,2.494,3.121a2.3,2.3,0,0,0,2.23-1.834,2.448,2.448,0,0,0,.076-.654Z" transform="translate(62.18 203.886)"/><path class="cls-1" d="M-8.288-143.474a.919.919,0,0,1-.888.95.785.785,0,0,1-.084,0,.911.911,0,0,1-.921-.9c0-.017,0-.033,0-.05a.927.927,0,0,1,.909-.944h.04a.914.914,0,0,1,.943.885Zm-1.7,10.766V-141.1h1.518v8.393Z" transform="translate(62.18 203.886)"/><path class="cls-1" d="M-5.938-138.833c0-.876-.029-1.572-.069-2.267h1.352l.086,1.38h.038a3.1,3.1,0,0,1,2.776-1.571c1.152,0,2.957.694,2.957,3.577v5.006H-.318v-4.837c0-1.363-.511-2.494-1.941-2.494a2.195,2.195,0,0,0-2.055,1.568,2.325,2.325,0,0,0-.1.707v5.058H-5.938Z" transform="translate(62.18 203.886)"/><path class="cls-1" d="M10.931-141.1c-.042.594-.071,1.275-.071,2.3v4.874a4.883,4.883,0,0,1-1.2,3.841,4.516,4.516,0,0,1-3.057,1.007,5.419,5.419,0,0,1-2.8-.692l.383-1.174a4.723,4.723,0,0,0,2.47.673c1.559,0,2.7-.815,2.7-2.941v-.936H9.324a2.973,2.973,0,0,1-2.667,1.414,3.759,3.759,0,0,1-3.591-3.92c0-.062.007-.124.013-.186,0-2.849,1.851-4.449,3.788-4.449a2.791,2.791,0,0,1,2.619,1.447h.035l.063-1.256Zm-1.586,3.3a2.348,2.348,0,0,0-.084-.683,2.2,2.2,0,0,0-2.146-1.625c-1.457,0-2.5,1.231-2.5,3.182,0,1.642.847,3.023,2.484,3.023a2.23,2.23,0,0,0,2.124-1.573,2.7,2.7,0,0,0,.123-.813Z" transform="translate(62.18 203.886)"/><path class="cls-1" d="M26.768-130.995c-1.577-.4-3.121-.885-4.477-1.35a2.5,2.5,0,0,0-.712-.172c-2.78-.1-5.142-2.149-5.142-5.919,0-3.747,2.282-6.159,5.437-6.159,3.176,0,5.247,2.458,5.247,5.915,0,3-1.39,4.923-3.334,5.612V-133c1.157.291,2.431.572,3.427.743Zm-1.239-7.612c0-2.339-1.217-4.76-3.7-4.76-2.547,0-3.794,2.369-3.793,4.892,0,2.486,1.363,4.729,3.717,4.729,2.407,0,3.767-2.2,3.767-4.861Z" transform="translate(62.18 203.886)"/><path class="cls-1" d="M36.086-135c0,.88.028,1.634.069,2.3H34.807l-.081-1.373h-.043a3.134,3.134,0,0,1-2.778,1.564c-1.314,0-2.891-.737-2.891-3.679V-141.1h1.517v4.637c0,1.6.5,2.688,1.875,2.688a2.23,2.23,0,0,0,2.021-1.4,2.372,2.372,0,0,0,.137-.783v-5.14h1.519Z" transform="translate(62.18 203.886)"/><path class="cls-1" d="M43.273-132.708l-.135-1.06h-.046a3.114,3.114,0,0,1-2.567,1.251,2.392,2.392,0,0,1-2.555-2.22c0-.062-.006-.125-.006-.187,0-2.034,1.8-3.15,5.044-3.128v-.171a1.735,1.735,0,0,0-1.509-1.934,1.81,1.81,0,0,0-.4,0,4.086,4.086,0,0,0-2.185.62l-.347-1.015a5.277,5.277,0,0,1,2.77-.736c2.566,0,3.19,1.753,3.19,3.436v3.139a13.088,13.088,0,0,0,.124,2.008Zm-.238-4.285c-1.652-.035-3.543.262-3.543,1.884a1.345,1.345,0,0,0,1.218,1.46,1.312,1.312,0,0,0,.208,0,2.1,2.1,0,0,0,2.045-1.406,1.621,1.621,0,0,0,.072-.479Z" transform="translate(62.18 203.886)"/><path class="cls-1" d="M46.986-145.028H48.5v12.32H46.986Z" transform="translate(62.18 203.886)"/><path class="cls-1" d="M52.777-143.474a.92.92,0,0,1-.888.95.785.785,0,0,1-.084,0,.91.91,0,0,1-.921-.9c0-.017,0-.033,0-.05a.927.927,0,0,1,.908-.944h.047a.915.915,0,0,1,.937.892Zm-1.7,10.766V-141.1h1.517v8.393Z" transform="translate(62.18 203.886)"/><path class="cls-1" d="M56.959-143.517v2.417h2.19v1.156H56.957v4.523c0,1.046.3,1.637,1.153,1.637a3.04,3.04,0,0,0,.885-.11l.069,1.158a3.876,3.876,0,0,1-1.363.211,2.135,2.135,0,0,1-1.648-.646,3.216,3.216,0,0,1-.592-2.19v-4.584h-1.3V-141.1h1.3v-2.021Z" transform="translate(62.18 203.886)"/><path class="cls-1" d="M61.58-141.1l1.835,4.956c.2.555.4,1.213.539,1.712H64c.149-.5.335-1.137.536-1.746l1.66-4.927h1.619l-2.3,5.979c-1.087,2.886-1.836,4.354-2.875,5.264a4.228,4.228,0,0,1-1.871.98l-.382-1.272a3.986,3.986,0,0,0,1.337-.743A4.849,4.849,0,0,0,63-132.6a.931.931,0,0,0,.124-.372.982.982,0,0,0-.106-.39l-3.1-7.742Z" transform="translate(62.18 203.886)"/><path class="cls-1" d="M72.93-144.244a20.233,20.233,0,0,1,3.215-.248,6.7,6.7,0,0,1,4.739,1.471,5.337,5.337,0,0,1,1.656,4.178,6.233,6.233,0,0,1-1.682,4.551,7.289,7.289,0,0,1-5.18,1.685,24.479,24.479,0,0,1-2.748-.124ZM74.448-133.9a10.7,10.7,0,0,0,1.518.071c3.239.007,4.982-1.8,4.982-4.956.019-2.762-1.544-4.506-4.73-4.506a9.052,9.052,0,0,0-1.77.154Z" transform="translate(62.18 203.886)"/><path class="cls-1" d="M86.175-143.474a.919.919,0,0,1-.887.95.785.785,0,0,1-.084,0,.91.91,0,0,1-.921-.9c0-.017,0-.033,0-.05a.928.928,0,0,1,.9-.949h.045a.914.914,0,0,1,.943.885C86.176-143.517,86.176-143.495,86.175-143.474Zm-1.7,10.766V-141.1h1.518v8.393Z" transform="translate(62.18 203.886)"/><path class="cls-1" d="M93.179-132.708l-.134-1.06H93a3.115,3.115,0,0,1-2.567,1.251,2.394,2.394,0,0,1-2.558-2.217c0-.064-.006-.127-.005-.19,0-2.034,1.8-3.15,5.043-3.128v-.171a1.734,1.734,0,0,0-1.509-1.934,1.792,1.792,0,0,0-.4,0,4.093,4.093,0,0,0-2.187.62l-.347-1.015a5.28,5.28,0,0,1,2.77-.736c2.566,0,3.192,1.753,3.192,3.436v3.139a13.088,13.088,0,0,0,.124,2.008Zm-.238-4.285c-1.652-.035-3.542.262-3.542,1.884a1.345,1.345,0,0,0,1.218,1.46,1.3,1.3,0,0,0,.207,0,2.1,2.1,0,0,0,2.045-1.406,1.621,1.621,0,0,0,.072-.479Z" transform="translate(62.18 203.886)"/><path class="cls-1" d="M104.134-141.1c-.042.594-.07,1.275-.07,2.3v4.874a4.884,4.884,0,0,1-1.2,3.841,4.519,4.519,0,0,1-3.058,1.007,5.412,5.412,0,0,1-2.8-.692l.381-1.174a4.721,4.721,0,0,0,2.478.673c1.557,0,2.7-.815,2.7-2.941v-.936h-.035a2.975,2.975,0,0,1-2.667,1.414,3.76,3.76,0,0,1-3.591-3.921c0-.062.006-.124.012-.185,0-2.849,1.851-4.449,3.79-4.449a2.79,2.79,0,0,1,2.618,1.447h.035l.063-1.256Zm-1.588,3.3a2.348,2.348,0,0,0-.084-.683,2.206,2.206,0,0,0-2.145-1.625c-1.455,0-2.5,1.231-2.5,3.182,0,1.642.848,3.023,2.478,3.023a2.23,2.23,0,0,0,2.124-1.573,2.764,2.764,0,0,0,.124-.813Z" transform="translate(62.18 203.886)"/><path class="cls-1" d="M106.49-138.833c0-.876-.03-1.572-.071-2.267h1.349l.084,1.38h.043a3.1,3.1,0,0,1,2.775-1.571c1.153,0,2.958.694,2.958,3.577v5.006h-1.519v-4.837c0-1.363-.511-2.494-1.94-2.494a2.194,2.194,0,0,0-2.056,1.567,2.353,2.353,0,0,0-.106.707v5.057H106.49Z" transform="translate(62.18 203.886)"/><path class="cls-1" d="M123.713-136.984a4.111,4.111,0,0,1-3.738,4.452,3.962,3.962,0,0,1-.436.015,3.993,3.993,0,0,1-4.048-3.939,3.76,3.76,0,0,1,.013-.383,4.1,4.1,0,0,1,3.732-4.437,3.962,3.962,0,0,1,.436-.015,3.965,3.965,0,0,1,4.055,3.872A3.951,3.951,0,0,1,123.713-136.984Zm-6.655.1c0,1.841,1.054,3.221,2.544,3.221,1.463,0,2.557-1.363,2.557-3.272,0-1.42-.716-3.215-2.529-3.215C117.837-140.147,117.058-138.471,117.058-136.886Z" transform="translate(62.18 203.886)"/><path class="cls-1" d="M125.419-134.259a4.169,4.169,0,0,0,2.023.6c1.115,0,1.631-.548,1.631-1.249,0-.735-.444-1.115-1.56-1.538-1.515-.549-2.23-1.374-2.23-2.378a2.594,2.594,0,0,1,2.7-2.479c.067,0,.133.009.2.017a4.07,4.07,0,0,1,2.055.515l-.379,1.115a3.3,3.3,0,0,0-1.722-.5c-.9,0-1.39.519-1.39,1.152,0,.695.495,1,1.593,1.431,1.447.54,2.2,1.27,2.2,2.522,0,1.487-1.157,2.529-3.14,2.529a4.793,4.793,0,0,1-2.354-.585Z" transform="translate(62.18 203.886)"/><path class="cls-1" d="M134.343-143.517v2.417h2.193v1.156h-2.193v4.523c0,1.046.3,1.637,1.153,1.637a3.04,3.04,0,0,0,.885-.11l.069,1.158a3.873,3.873,0,0,1-1.363.211,2.134,2.134,0,0,1-1.647-.646,3.211,3.211,0,0,1-.594-2.19v-4.584h-1.3V-141.1h1.3v-2.021Z" transform="translate(62.18 203.886)"/><path class="cls-1" d="M139.963-143.474a.92.92,0,0,1-.888.95.785.785,0,0,1-.084,0,.909.909,0,0,1-.922-.9c0-.017,0-.034,0-.051a.928.928,0,0,1,.906-.949h.043a.916.916,0,0,1,.944.886Zm-1.706,10.766V-141.1h1.519v8.393Z" transform="translate(62.18 203.886)"/><path class="cls-1" d="M148.3-133.011a5.816,5.816,0,0,1-2.409.486,4,4,0,0,1-4.193-3.795,4.069,4.069,0,0,1,.006-.494,4.274,4.274,0,0,1,4.063-4.476,4.146,4.146,0,0,1,.446,0,4.937,4.937,0,0,1,2.121.446l-.339,1.173a3.723,3.723,0,0,0-1.785-.4,2.913,2.913,0,0,0-2.972,2.851,2.978,2.978,0,0,0,.012.327,2.881,2.881,0,0,0,2.608,3.13,3.014,3.014,0,0,0,.315.011,4.461,4.461,0,0,0,1.868-.4Z" transform="translate(62.18 203.886)"/><path class="cls-1" d="M158.412-132.708l-.133-1.06h-.046a3.117,3.117,0,0,1-2.568,1.251,2.394,2.394,0,0,1-2.558-2.217c0-.064-.006-.127-.006-.19,0-2.034,1.8-3.15,5.044-3.128v-.171a1.735,1.735,0,0,0-1.509-1.934,1.8,1.8,0,0,0-.4,0,4.09,4.09,0,0,0-2.186.62l-.347-1.015a5.277,5.277,0,0,1,2.77-.736c2.566,0,3.192,1.753,3.192,3.436v3.139a13.087,13.087,0,0,0,.123,2.008Zm-.237-4.285c-1.652-.035-3.542.262-3.542,1.884a1.345,1.345,0,0,0,1.218,1.46,1.289,1.289,0,0,0,.206,0,2.105,2.105,0,0,0,2.046-1.406,1.589,1.589,0,0,0,.072-.479Z" transform="translate(62.18 203.886)"/><path class="cls-1" d="M162.126-138.833c0-.876-.029-1.572-.07-2.267h1.349l.085,1.38h.042a3.1,3.1,0,0,1,2.775-1.571c1.152,0,2.957.694,2.957,3.577v5.006h-1.519v-4.837c0-1.363-.51-2.494-1.939-2.494a2.2,2.2,0,0,0-2.056,1.567,2.353,2.353,0,0,0-.106.707v5.057h-1.519Z" transform="translate(62.18 203.886)"/><path class="cls-1" d="M179-145.028v10.159c0,.743.028,1.585.069,2.164h-1.351l-.079-1.451h-.045a3.077,3.077,0,0,1-2.85,1.642c-2.034,0-3.6-1.719-3.6-4.263-.013-2.806,1.729-4.511,3.772-4.511a2.8,2.8,0,0,1,2.532,1.273h.033v-5.013Zm-1.518,7.343a3.1,3.1,0,0,0-.063-.652,2.257,2.257,0,0,0-2.21-1.757c-1.581,0-2.526,1.386-2.526,3.23,0,1.705.848,3.121,2.5,3.121a2.3,2.3,0,0,0,2.23-1.834,2.446,2.446,0,0,0,.074-.654Z" transform="translate(62.18 203.886)"/><path class="cls-1" d="M186.775-144.4v11.7h-1.519v-11.7Z" transform="translate(62.18 203.886)"/><path class="cls-1" d="M189.535-138.833c0-.876-.028-1.572-.069-2.267h1.349l.084,1.38h.042a3.1,3.1,0,0,1,2.776-1.571c1.152,0,2.958.694,2.958,3.577v5.006h-1.52v-4.837c0-1.363-.51-2.494-1.939-2.494a2.2,2.2,0,0,0-2.057,1.567,2.384,2.384,0,0,0-.1.707v5.057h-1.519Z" transform="translate(62.18 203.886)"/><path class="cls-1" d="M200.925-143.517v2.417h2.192v1.156h-2.192v4.523c0,1.046.3,1.637,1.154,1.637a3.04,3.04,0,0,0,.885-.11l.069,1.158a3.873,3.873,0,0,1-1.363.211,2.13,2.13,0,0,1-1.646-.646,3.211,3.211,0,0,1-.594-2.19v-4.584h-1.3V-141.1h1.3v-2.021Z" transform="translate(62.18 203.886)"/><path class="cls-1" d="M205.589-136.627a2.678,2.678,0,0,0,2.426,2.909,2.555,2.555,0,0,0,.446,0,5.682,5.682,0,0,0,2.332-.428l.266,1.084a6.792,6.792,0,0,1-2.8.534,3.912,3.912,0,0,1-4.136-3.675,3.751,3.751,0,0,1,.007-.561c0-2.542,1.5-4.53,3.949-4.53,2.738,0,3.453,2.4,3.453,3.947a3.667,3.667,0,0,1-.052.717Zm4.468-1.1a2.166,2.166,0,0,0-1.839-2.449,2.184,2.184,0,0,0-.268-.022,2.512,2.512,0,0,0-2.344,2.471Z" transform="translate(62.18 203.886)"/><path class="cls-1" d="M213.424-138.486c0-.991-.025-1.836-.069-2.614h1.336l.06,1.647h.053a2.551,2.551,0,0,1,2.338-1.838,1.779,1.779,0,0,1,.424.042v1.438a2.321,2.321,0,0,0-.519-.046A2.132,2.132,0,0,0,215-137.9a4.062,4.062,0,0,0-.061.713v4.483h-1.519Z" transform="translate(62.18 203.886)"/><path class="cls-1" d="M220.123-141.1l1.645,4.708c.283.778.5,1.471.688,2.167h.045c.193-.7.433-1.4.7-2.167l1.642-4.708h1.595l-3.3,8.393h-1.456l-3.2-8.393Z" transform="translate(62.18 203.886)"/><path class="cls-1" d="M228.566-136.627a2.678,2.678,0,0,0,2.426,2.909,2.555,2.555,0,0,0,.446,0,5.682,5.682,0,0,0,2.325-.428l.267,1.084a6.8,6.8,0,0,1-2.8.534,3.914,3.914,0,0,1-4.137-3.675,4.039,4.039,0,0,1,.007-.561c0-2.542,1.5-4.53,3.95-4.53,2.738,0,3.453,2.4,3.453,3.947a3.667,3.667,0,0,1-.052.717Zm4.467-1.1a2.167,2.167,0,0,0-1.841-2.45,2.346,2.346,0,0,0-.265-.021,2.509,2.509,0,0,0-2.342,2.471Z" transform="translate(62.18 203.886)"/><path class="cls-1" d="M236.4-138.833c0-.876-.028-1.572-.069-2.267h1.349l.084,1.38h.042a3.1,3.1,0,0,1,2.776-1.571c1.153,0,2.958.694,2.958,3.577v5.006h-1.519v-4.837c0-1.363-.511-2.494-1.94-2.494a2.194,2.194,0,0,0-2.056,1.567,2.353,2.353,0,0,0-.106.707v5.057H236.4Z" transform="translate(62.18 203.886)"/><path class="cls-1" d="M247.794-143.517v2.417h2.193v1.156h-2.193v4.523c0,1.046.3,1.637,1.153,1.637a3.04,3.04,0,0,0,.885-.11l.069,1.158a3.873,3.873,0,0,1-1.363.211,2.134,2.134,0,0,1-1.647-.646,3.205,3.205,0,0,1-.592-2.19v-4.584H245V-141.1h1.3v-2.021Z" transform="translate(62.18 203.886)"/><path class="cls-1" d="M253.411-143.474a.919.919,0,0,1-.887.95.785.785,0,0,1-.084,0,.908.908,0,0,1-.921-.9c0-.017,0-.034,0-.052a.928.928,0,0,1,.9-.949h.045a.914.914,0,0,1,.943.885C253.412-143.517,253.412-143.495,253.411-143.474Zm-1.706,10.766V-141.1h1.519v8.393Z" transform="translate(62.18 203.886)"/><path class="cls-1" d="M263.361-136.984a4.111,4.111,0,0,1-3.738,4.452,3.962,3.962,0,0,1-.436.015,3.993,3.993,0,0,1-4.048-3.939,3.76,3.76,0,0,1,.013-.383,4.1,4.1,0,0,1,3.729-4.437,4.016,4.016,0,0,1,.439-.015,3.965,3.965,0,0,1,4.055,3.872A4.214,4.214,0,0,1,263.361-136.984Zm-6.656.1c0,1.841,1.055,3.221,2.544,3.221,1.463,0,2.558-1.363,2.558-3.272,0-1.42-.716-3.215-2.53-3.215C257.485-140.147,256.705-138.471,256.705-136.886Z" transform="translate(62.18 203.886)"/><path class="cls-1" d="M265.282-138.833c0-.876-.028-1.572-.069-2.267h1.349l.084,1.38h.043a3.1,3.1,0,0,1,2.775-1.571c1.153,0,2.958.694,2.958,3.577v5.006H270.9v-4.837c0-1.363-.511-2.494-1.94-2.494a2.194,2.194,0,0,0-2.056,1.567,2.353,2.353,0,0,0-.106.707v5.057h-1.519Z" transform="translate(62.18 203.886)"/><path class="cls-1" d="M279.563-132.708l-.135-1.055h-.046a3.114,3.114,0,0,1-2.567,1.251,2.393,2.393,0,0,1-2.557-2.217c0-.064-.006-.127-.006-.19,0-2.034,1.8-3.151,5.044-3.128v-.176a1.735,1.735,0,0,0-1.509-1.934,1.8,1.8,0,0,0-.4,0,4.09,4.09,0,0,0-2.186.62l-.347-1.015a5.277,5.277,0,0,1,2.77-.736c2.566,0,3.191,1.753,3.191,3.436v3.139a13.215,13.215,0,0,0,.124,2.008Zm-.237-4.285c-1.652-.035-3.543.262-3.543,1.884a1.345,1.345,0,0,0,1.219,1.46,1.287,1.287,0,0,0,.206,0,2.105,2.105,0,0,0,2.046-1.406,1.621,1.621,0,0,0,.072-.479Z" transform="translate(62.18 203.886)"/><path class="cls-1" d="M283.276-145.028h1.518v12.32h-1.518Z" transform="translate(62.18 203.886)"/><path class="cls-1" d="M290.894-134.547a5.288,5.288,0,0,0,2.7.757c1.545,0,2.453-.807,2.453-1.992,0-1.085-.634-1.724-2.213-2.315-1.909-.677-3.1-1.681-3.1-3.316,0-1.822,1.514-3.173,3.792-3.173a5.365,5.365,0,0,1,2.58.565l-.42,1.239a4.447,4.447,0,0,0-2.21-.555c-1.611,0-2.213.951-2.213,1.749,0,1.085.711,1.622,2.325,2.244,1.983.779,2.984,1.734,2.984,3.446,0,1.794-1.322,3.373-4.089,3.373a5.977,5.977,0,0,1-2.988-.764Z" transform="translate(62.18 203.886)"/><path class="cls-1" d="M307.3-136.984a4.113,4.113,0,0,1-3.74,4.453,4.214,4.214,0,0,1-.435.014,3.993,3.993,0,0,1-4.047-3.94c0-.128,0-.255.013-.382a4.1,4.1,0,0,1,3.729-4.437,4.016,4.016,0,0,1,.439-.015,3.965,3.965,0,0,1,4.055,3.872A3.951,3.951,0,0,1,307.3-136.984Zm-6.655.1c0,1.841,1.054,3.221,2.543,3.221,1.463,0,2.559-1.363,2.559-3.272,0-1.42-.716-3.215-2.53-3.215C301.419-140.147,300.64-138.471,300.64-136.886Z" transform="translate(62.18 203.886)"/><path class="cls-1" d="M309.217-145.028h1.519v12.32h-1.519Z" transform="translate(62.18 203.886)"/><path class="cls-1" d="M320.321-135c0,.88.029,1.634.068,2.3h-1.348l-.08-1.373h-.044a3.136,3.136,0,0,1-2.777,1.564c-1.313,0-2.891-.737-2.891-3.679V-141.1h1.518v4.637c0,1.6.5,2.688,1.877,2.688a2.222,2.222,0,0,0,2.019-1.4,2.374,2.374,0,0,0,.139-.783v-5.14h1.519Z" transform="translate(62.18 203.886)"/><path class="cls-1" d="M324.686-143.517v2.417h2.193v1.156h-2.193v4.523c0,1.046.3,1.637,1.153,1.637a3.04,3.04,0,0,0,.885-.11l.069,1.158a3.873,3.873,0,0,1-1.363.211,2.134,2.134,0,0,1-1.647-.646,3.211,3.211,0,0,1-.593-2.19v-4.584h-1.3V-141.1h1.3v-2.021Z" transform="translate(62.18 203.886)"/><path class="cls-1" d="M330.306-143.474a.92.92,0,0,1-.888.95.785.785,0,0,1-.084,0,.909.909,0,0,1-.921-.9c0-.017,0-.034,0-.052a.927.927,0,0,1,.9-.949h.045a.915.915,0,0,1,.943.885ZM328.6-132.708V-141.1h1.518v8.393Z" transform="translate(62.18 203.886)"/><path class="cls-1" d="M340.259-136.984a4.111,4.111,0,0,1-3.738,4.452,3.962,3.962,0,0,1-.436.015,3.993,3.993,0,0,1-4.048-3.939,3.76,3.76,0,0,1,.013-.383,4.1,4.1,0,0,1,3.729-4.437,4.016,4.016,0,0,1,.439-.015,3.965,3.965,0,0,1,4.055,3.872A3.951,3.951,0,0,1,340.259-136.984Zm-6.655.1c0,1.841,1.054,3.221,2.543,3.221,1.463,0,2.558-1.363,2.558-3.272,0-1.42-.716-3.215-2.529-3.215s-2.579,1.681-2.579,3.266Z" transform="translate(62.18 203.886)"/><path class="cls-1" d="M342.174-138.833c0-.876-.028-1.572-.069-2.267h1.349l.084,1.38h.042a3.1,3.1,0,0,1,2.776-1.571c1.153,0,2.958.694,2.958,3.577v5.006H347.8v-4.837c0-1.363-.511-2.494-1.94-2.494a2.2,2.2,0,0,0-2.057,1.567,2.384,2.384,0,0,0-.105.707v5.057h-1.519Z" transform="translate(62.18 203.886)"/><path class="cls-1" d="M351.585-134.259a4.18,4.18,0,0,0,2.023.6c1.115,0,1.631-.548,1.631-1.249,0-.735-.444-1.115-1.559-1.538-1.516-.549-2.23-1.374-2.23-2.378a2.6,2.6,0,0,1,2.706-2.479c.066,0,.132.009.2.017a4.065,4.065,0,0,1,2.055.515l-.379,1.115a3.3,3.3,0,0,0-1.722-.5c-.9,0-1.39.519-1.39,1.152,0,.695.5,1,1.593,1.431,1.447.54,2.2,1.27,2.2,2.522,0,1.487-1.156,2.529-3.139,2.529a4.788,4.788,0,0,1-2.354-.585Z" transform="translate(62.18 203.886)"/><path class="cls-1" d="M96.329-111.893v-7.236h-1.17v-1.157h1.17v-.4a4.021,4.021,0,0,1,.977-2.941,2.925,2.925,0,0,1,2.04-.775,3.305,3.305,0,0,1,1.3.248l-.2,1.173a2.358,2.358,0,0,0-.98-.192c-1.29,0-1.628,1.144-1.628,2.44v.453h2.028v1.157H97.848v7.237Z" transform="translate(62.18 203.886)"/><path class="cls-1" d="M108.623-116.17a4.111,4.111,0,0,1-3.74,4.452,3.926,3.926,0,0,1-.434.015,3.994,3.994,0,0,1-4.047-3.941c0-.127,0-.255.013-.383a4.1,4.1,0,0,1,3.732-4.437,4.225,4.225,0,0,1,.436-.014,3.965,3.965,0,0,1,4.054,3.873A3.951,3.951,0,0,1,108.623-116.17Zm-6.654.1c0,1.84,1.054,3.222,2.543,3.222,1.463,0,2.557-1.363,2.557-3.272,0-1.42-.714-3.215-2.529-3.215-1.792.006-2.571,1.673-2.571,3.267Z" transform="translate(62.18 203.886)"/><path class="cls-1" d="M110.543-117.671c0-.991-.024-1.837-.07-2.615h1.338l.058,1.646h.054a2.547,2.547,0,0,1,2.338-1.837,1.775,1.775,0,0,1,.424.043V-119a2.443,2.443,0,0,0-.519-.044,2.131,2.131,0,0,0-2.043,1.952,3.981,3.981,0,0,0-.062.714v4.483h-1.518Z" transform="translate(62.18 203.886)"/><path class="cls-1" d="M121.767-111.893v-4.955l-3.71-6.74h1.735l1.643,3.232c.446.888.8,1.595,1.163,2.414h.035c.322-.77.721-1.535,1.173-2.423l1.687-3.222H127.2l-3.913,6.717v4.981Z" transform="translate(62.18 203.886)"/><path class="cls-1" d="M134.768-116.17a4.111,4.111,0,0,1-3.74,4.452,3.934,3.934,0,0,1-.434.015,4,4,0,0,1-4.048-3.942,3.751,3.751,0,0,1,.013-.382,4.1,4.1,0,0,1,3.734-4.437,4.176,4.176,0,0,1,.433-.014,3.965,3.965,0,0,1,4.056,3.871A4.244,4.244,0,0,1,134.768-116.17Zm-6.656.1c0,1.84,1.055,3.222,2.544,3.222,1.464,0,2.558-1.363,2.558-3.272,0-1.42-.716-3.215-2.53-3.215-1.792.006-2.572,1.673-2.572,3.267Z" transform="translate(62.18 203.886)"/><path class="cls-1" d="M143.708-114.188c0,.881.028,1.634.069,2.3h-1.349l-.081-1.373H142.3a3.137,3.137,0,0,1-2.778,1.564c-1.313,0-2.89-.737-2.89-3.679v-4.906h1.519v4.638c0,1.6.5,2.687,1.876,2.687a2.23,2.23,0,0,0,2.019-1.4,2.374,2.374,0,0,0,.139-.783v-5.142h1.519Z" transform="translate(62.18 203.886)"/><path class="cls-1" d="M146.238-117.671c0-.991-.025-1.837-.07-2.615h1.338l.059,1.646h.053a2.55,2.55,0,0,1,2.338-1.837,1.772,1.772,0,0,1,.423.043V-119a2.443,2.443,0,0,0-.519-.044,2.132,2.132,0,0,0-2.043,1.952,4.171,4.171,0,0,0-.06.714v4.483h-1.519Z" transform="translate(62.18 203.886)"/><path class="cls-1" d="M155.642-123.447a16.576,16.576,0,0,1,2.908-.234,4.8,4.8,0,0,1,3.279.973,3.184,3.184,0,0,1,1.029,2.448,3.435,3.435,0,0,1-.91,2.5,4.828,4.828,0,0,1-3.574,1.281,4.958,4.958,0,0,1-1.221-.107v4.691h-1.511Zm1.511,5.632a4.63,4.63,0,0,0,1.252.132c1.831,0,2.938-.9,2.938-2.5,0-1.547-1.1-2.3-2.762-2.3a7.121,7.121,0,0,0-1.428.124Z" transform="translate(62.18 203.886)"/><path class="cls-1" d="M169.028-111.893l-.136-1.06h-.045a3.122,3.122,0,0,1-2.567,1.251,2.394,2.394,0,0,1-2.56-2.217c0-.064-.007-.128-.006-.191,0-2.033,1.8-3.149,5.045-3.127v-.172a1.735,1.735,0,0,0-1.509-1.934,1.7,1.7,0,0,0-.4,0,4.078,4.078,0,0,0-2.185.62l-.347-1.015a5.267,5.267,0,0,1,2.77-.737c2.566,0,3.19,1.754,3.19,3.435v3.141a13.345,13.345,0,0,0,.124,2.008Zm-.238-4.285c-1.652-.036-3.544.261-3.544,1.884a1.345,1.345,0,0,0,1.22,1.459,1.289,1.289,0,0,0,.206,0,2.106,2.106,0,0,0,2.046-1.405,1.636,1.636,0,0,0,.072-.482Z" transform="translate(62.18 203.886)"/><path class="cls-1" d="M174.5-122.7v2.416H176.7v1.157H174.5v4.522c0,1.047.3,1.638,1.154,1.638a3.008,3.008,0,0,0,.885-.112l.069,1.16a3.9,3.9,0,0,1-1.363.211,2.143,2.143,0,0,1-1.648-.646,3.215,3.215,0,0,1-.593-2.19v-4.584h-1.3v-1.157h1.3v-2.021Z" transform="translate(62.18 203.886)"/><path class="cls-1" d="M180.123-122.659a.92.92,0,0,1-.89.95.73.73,0,0,1-.081,0,.91.91,0,0,1-.923-.9c0-.017,0-.034,0-.051a.928.928,0,0,1,.9-.949h.045a.914.914,0,0,1,.944.884C180.124-122.7,180.124-122.681,180.123-122.659Zm-1.706,10.766v-8.393h1.519v8.393Z" transform="translate(62.18 203.886)"/><path class="cls-1" d="M183.327-115.814a2.678,2.678,0,0,0,2.424,2.911,2.578,2.578,0,0,0,.448,0,5.63,5.63,0,0,0,2.324-.43l.268,1.084a6.765,6.765,0,0,1-2.8.536,3.914,3.914,0,0,1-4.137-3.675,4.039,4.039,0,0,1,.007-.561c0-2.544,1.5-4.531,3.949-4.531,2.738,0,3.455,2.4,3.455,3.948a3.8,3.8,0,0,1-.053.715Zm4.468-1.1a2.168,2.168,0,0,0-1.842-2.45,2.346,2.346,0,0,0-.265-.021,2.507,2.507,0,0,0-2.342,2.471Z" transform="translate(62.18 203.886)"/><path class="cls-1" d="M191.164-118.019c0-.876-.028-1.571-.069-2.267h1.348l.085,1.381h.043a3.1,3.1,0,0,1,2.775-1.572c1.152,0,2.957.7,2.957,3.578v5.006h-1.519v-4.84c0-1.355-.51-2.491-1.94-2.491a2.193,2.193,0,0,0-2.055,1.566,2.391,2.391,0,0,0-.106.708v5.057h-1.519Z" transform="translate(62.18 203.886)"/><path class="cls-1" d="M202.554-122.7v2.416h2.193v1.157h-2.193v4.522c0,1.047.3,1.638,1.154,1.638a3.008,3.008,0,0,0,.885-.112l.069,1.16a3.894,3.894,0,0,1-1.362.211,2.139,2.139,0,0,1-1.647-.646,3.2,3.2,0,0,1-.593-2.19v-4.584h-1.3v-1.157h1.3v-2.021Z" transform="translate(62.18 203.886)"/></svg>