<svg xmlns="http://www.w3.org/2000/svg" viewBox="0 0 188.724 270.275"><defs><style>.cls-1{fill:#fdfdfd;}.cls-2{fill:#0071bc;}.cls-3{fill:#4c4c4c;}</style></defs><title>one</title><g id="Layer_2" data-name="Layer 2"><g id="Layer_1-2" data-name="Layer 1"><path class="cls-1" d="M0,105.52V0H90.367c-.949.225-1.894.465-2.847.674A33.07,33.07,0,0,0,61.694,39.2c2.98,17.327,20.44,29.606,37.787,26.573A33.1,33.1,0,0,0,102.667,1.1C100.97.675,99.244.365,97.531,0h91.193V270.275H0V215.449l.285-.02c.411.018.823.052,1.235.052q92.694,0,185.389,0H188.3v-110h-1.667q-92.418,0-184.838,0c-.5,0-1.007.034-1.51.053ZM136.9,228.488H51.9v41.464H88.365V252.1h12.156v17.825H136.9Zm-113.672-136H165.349C157.6,81.032,147.172,74.512,133.437,74.4c-25.471-.213-50.946-.066-76.42-.079A39.931,39.931,0,0,0,33.81,81.642,39.039,39.039,0,0,0,23.225,92.486Zm147.711,136h-25.8c0,3.986-.113,7.887.026,11.78a12.685,12.685,0,0,0,11.592,12.063c6.186.567,12.351-3.477,13.4-9.57C170.96,238.117,170.714,233.3,170.936,228.486Zm-127.774.019H17.71c0,3.865-.121,7.627.026,11.378a12.785,12.785,0,0,0,11.821,12.454,12.472,12.472,0,0,0,13.5-10.672C43.6,237.344,43.162,232.9,43.162,228.505Z"/><path class="cls-2" d="M97.531,0c1.713.365,3.439.675,5.136,1.1a33.1,33.1,0,0,1-3.186,64.673C82.134,68.809,64.674,56.53,61.694,39.2A33.07,33.07,0,0,1,87.52.674c.953-.209,1.9-.449,2.847-.674Z"/><path class="cls-3" d="M.285,215.429l-.285.02V105.52l.285.021Z"/><path class="cls-2" d="M.285,215.429V105.541c.5-.019,1.007-.053,1.51-.053q92.42,0,184.838,0H188.3v110h-1.391q-92.7,0-185.389,0C1.108,215.481.7,215.447.285,215.429ZM158.9,206.512V114.676H30.324v91.836Z"/><path class="cls-2" d="M136.9,228.488v41.433H100.521V252.1H88.365v17.856H51.9V228.488Z"/><path class="cls-2" d="M23.225,92.486A39.039,39.039,0,0,1,33.81,81.642a39.931,39.931,0,0,1,23.207-7.324c25.474.013,50.949-.134,76.42.079,13.735.115,24.164,6.635,31.912,18.089Z"/><path class="cls-2" d="M170.936,228.486c-.222,4.809.024,9.631-.776,14.273-1.05,6.093-7.215,10.137-13.4,9.57a12.685,12.685,0,0,1-11.592-12.063c-.139-3.893-.026-7.794-.026-11.78Z"/><path class="cls-2" d="M43.162,228.505c0,4.4.433,8.839-.1,13.16a12.472,12.472,0,0,1-13.5,10.672,12.785,12.785,0,0,1-11.821-12.454c-.147-3.751-.026-7.513-.026-11.378Z"/><path class="cls-1" d="M158.9,206.512H30.324V114.676H158.9Zm-58.335-37.589h1.541q11.019.007,22.038.015a10.917,10.917,0,0,0,1.1-.02,2.528,2.528,0,0,0,2.307-2.473,2.5,2.5,0,0,0-2.248-2.521,12.367,12.367,0,0,0-1.376-.03H100.574V155.82h1.556q12.4,0,24.793,0a9.019,9.019,0,0,0,1.779-.126,2.4,2.4,0,0,0,1.957-2.6,2.5,2.5,0,0,0-2.116-2.359,10.443,10.443,0,0,0-1.513-.043q-12.465,0-24.931,0h-1.5v-8.058c8.309,0,16.525,0,24.741,0a8.158,8.158,0,0,0,1.641-.114,2.4,2.4,0,0,0,2-2.567,2.508,2.508,0,0,0-2.2-2.428,8.955,8.955,0,0,0-1.238-.03H100.581v-8.057c6.452,0,12.826,0,19.2-.006a7.077,7.077,0,0,0,1.635-.139,2.308,2.308,0,0,0,1.87-2.268,2.333,2.333,0,0,0-1.722-2.516,5.427,5.427,0,0,0-1.621-.2q-9.022-.019-18.044-.008h-1.438v-4.345H87.806v4.332h-1.75c-6.061,0-12.122-.01-18.182.006a2.549,2.549,0,1,0-.408,5.08,9.989,9.989,0,0,0,1.237.036q8.885,0,17.768,0h1.315v8.059H63.173c-.413,0-.828-.014-1.239.014a2.5,2.5,0,0,0-2.468,2.451,2.34,2.34,0,0,0,2.284,2.584c2.289.124,4.587.083,6.882.086,6.375.008,12.75,0,19.181,0v8.074H86.392q-12.534,0-25.068,0a10.3,10.3,0,0,0-1.513.047,2.474,2.474,0,0,0-2.065,2.4,2.436,2.436,0,0,0,2.021,2.561,10.146,10.146,0,0,0,1.647.075q12.465.006,24.931,0H87.78v8.1H86.168q-11.157,0-22.314,0c-1.753,0-2.756.716-2.978,2.033-.3,1.758.844,3.016,2.814,3.02q11.364.021,22.727.006h1.405v8.108h-1.55q-10.745,0-21.488,0c-2.109,0-3.032.919-3,3.033.042,2.524.012,5.064.293,7.565a38.983,38.983,0,0,0,1.416,7.255,6.67,6.67,0,0,0,11.961,1.775c1.461-2.158,2.7-4.463,4.135-6.642a61.122,61.122,0,0,1,4.065-5.679,5.266,5.266,0,0,1,4.3-1.953v15.388h12.627v-15.44a7.5,7.5,0,0,1,5.02,3.357c1.453,2.106,2.7,4.353,4.066,6.522a48.037,48.037,0,0,0,3.166,4.815,6.609,6.609,0,0,0,11.227-1.058,9.462,9.462,0,0,0,1.25-3.316q.728-6.2,1.135-12.439c.157-2.392-.755-3.184-3.2-3.186q-10.605-.006-21.212,0h-1.461Z"/><path class="cls-2" d="M100.566,168.923v8.108h1.461q10.606,0,21.212,0c2.449,0,3.361.794,3.2,3.186q-.409,6.231-1.135,12.439a9.462,9.462,0,0,1-1.25,3.316,6.609,6.609,0,0,1-11.227,1.058,48.037,48.037,0,0,1-3.166-4.815c-1.365-2.169-2.613-4.416-4.066-6.522a7.5,7.5,0,0,0-5.02-3.357v15.44H87.952V182.389a5.266,5.266,0,0,0-4.3,1.953,61.122,61.122,0,0,0-4.065,5.679c-1.432,2.179-2.674,4.484-4.135,6.642A6.67,6.67,0,0,1,63.5,194.888a38.983,38.983,0,0,1-1.416-7.255c-.281-2.5-.251-5.041-.293-7.565-.035-2.114.888-3.03,3-3.033q10.745-.018,21.488,0h1.55v-8.108H86.417q-11.364,0-22.727-.006c-1.97,0-3.11-1.262-2.814-3.02.222-1.317,1.225-2.031,2.978-2.033q11.157-.016,22.314,0H87.78v-8.1H86.345q-12.465,0-24.931,0a10.146,10.146,0,0,1-1.647-.075,2.436,2.436,0,0,1-2.021-2.561,2.474,2.474,0,0,1,2.065-2.4,10.3,10.3,0,0,1,1.513-.047q12.534,0,25.068,0h1.421V142.6c-6.431,0-12.806.006-19.181,0-2.3,0-4.593.038-6.882-.086a2.34,2.34,0,0,1-2.284-2.584,2.5,2.5,0,0,1,2.468-2.451c.411-.028.826-.014,1.239-.014H87.786V129.4H86.471q-8.885,0-17.768,0a9.989,9.989,0,0,1-1.237-.036,2.549,2.549,0,1,1,.408-5.08c6.06-.016,12.121-.006,18.182-.006h1.75v-4.332h12.655v4.345H101.9q9.021,0,18.044.008a5.427,5.427,0,0,1,1.621.2,2.333,2.333,0,0,1,1.722,2.516,2.308,2.308,0,0,1-1.87,2.268,7.077,7.077,0,0,1-1.635.139c-6.374.009-12.748.006-19.2.006v8.057H125.54a8.955,8.955,0,0,1,1.238.03,2.508,2.508,0,0,1,2.2,2.428,2.4,2.4,0,0,1-2,2.567,8.158,8.158,0,0,1-1.641.114c-8.216.007-16.432,0-24.741,0v8.058h1.5q12.465,0,24.931,0a10.443,10.443,0,0,1,1.513.043,2.5,2.5,0,0,1,2.116,2.359,2.4,2.4,0,0,1-1.957,2.6,9.019,9.019,0,0,1-1.779.126q-12.4.011-24.793,0h-1.556v8.073h23.355a12.367,12.367,0,0,1,1.376.03,2.5,2.5,0,0,1,2.248,2.521,2.528,2.528,0,0,1-2.307,2.473,10.917,10.917,0,0,1-1.1.02q-11.019-.006-22.038-.015Z"/></g></g></svg>