<svg xmlns="http://www.w3.org/2000/svg" viewBox="0 0 337.238 269.53"><defs><style>.cls-1,.cls-2{fill:none;}.cls-1{stroke:#294a6d;stroke-width:13.939px;}.cls-1,.cls-2,.cls-3{stroke-miterlimit:10;}.cls-2,.cls-3{stroke:#5ea9f9;stroke-width:5.435px;}.cls-3{fill:#294a6d;}</style></defs><title>schedule</title><g id="Layer_2" data-name="Layer 2"><g id="Layer_1-2" data-name="Layer 1"><rect class="cls-1" x="6.97" y="26.237" width="323.299" height="236.324"/><rect class="cls-2" x="34.736" y="53.802" width="21.37" height="21.37"/><rect class="cls-3" x="80.307" y="53.802" width="21.37" height="21.37"/><rect class="cls-2" x="120.654" y="53.802" width="21.37" height="21.37"/><rect class="cls-3" x="161" y="53.802" width="21.37" height="21.37"/><rect class="cls-2" x="205.456" y="53.802" width="21.37" height="21.37"/><rect class="cls-2" x="244.385" y="53.802" width="21.37" height="21.37"/><rect class="cls-3" x="285.383" y="53.802" width="21.37" height="21.37"/><rect class="cls-2" x="34.736" y="106.271" width="21.37" height="21.37"/><rect class="cls-3" x="80.307" y="106.271" width="21.37" height="21.37"/><rect class="cls-2" x="120.654" y="106.271" width="21.37" height="21.37"/><rect class="cls-3" x="161" y="106.271" width="21.37" height="21.37"/><rect class="cls-2" x="205.456" y="106.271" width="21.37" height="21.37"/><rect class="cls-3" x="244.385" y="106.271" width="21.37" height="21.37"/><rect class="cls-3" x="285.383" y="106.271" width="21.37" height="21.37"/><rect class="cls-2" x="34.736" y="158.741" width="21.37" height="21.37"/><rect class="cls-2" x="80.307" y="158.741" width="21.37" height="21.37"/><rect class="cls-2" x="120.654" y="158.741" width="21.37" height="21.37"/><rect class="cls-3" x="161" y="158.741" width="21.37" height="21.37"/><rect class="cls-3" x="205.456" y="158.741" width="21.37" height="21.37"/><rect class="cls-2" x="244.385" y="158.741" width="21.37" height="21.37"/><rect class="cls-3" x="285.383" y="158.741" width="21.37" height="21.37"/><rect class="cls-2" x="34.736" y="211.21" width="21.37" height="21.37"/><rect class="cls-3" x="80.307" y="211.21" width="21.37" height="21.37"/><rect class="cls-2" x="120.654" y="211.21" width="21.37" height="21.37"/><rect class="cls-3" x="161" y="211.21" width="21.37" height="21.37"/><rect class="cls-2" x="205.456" y="211.21" width="21.37" height="21.37"/><rect class="cls-2" x="244.385" y="211.21" width="21.37" height="21.37"/><rect class="cls-3" x="285.383" y="211.21" width="21.37" height="21.37"/><rect class="cls-3" x="6.97" y="2.717" width="323.299" height="20.468"/></g></g></svg>