<svg xmlns="http://www.w3.org/2000/svg" viewBox="0 0 214.715 214.722"><defs><style>.cls-1{fill:#fff;}</style></defs><title>sPhone</title><g id="Layer_2" data-name="Layer 2"><g id="Layer_1-2" data-name="Layer 1"><path class="cls-1" d="M151.414,0H61.267A15.764,15.764,0,0,0,45.5,15.764v183.19A15.767,15.767,0,0,0,61.27,214.722h90.141a15.768,15.768,0,0,0,15.768-15.768V15.764A15.764,15.764,0,0,0,151.414,0ZM52.66,28.63H160.021V164.62H52.66ZM61.267,7.157h90.144a8.61,8.61,0,0,1,8.61,8.611v5.7H52.66V15.764A8.607,8.607,0,0,1,61.267,7.157Zm90.147,200.408H61.267a8.607,8.607,0,0,1-8.607-8.607v-27.18H160.021v27.18A8.607,8.607,0,0,1,151.414,207.565Z"/><path class="cls-1" d="M107.357,174.541a14.315,14.315,0,1,0,14.315,14.315A14.329,14.329,0,0,0,107.357,174.541Zm0,21.473a7.158,7.158,0,1,1,7.158-7.158A7.165,7.165,0,0,1,107.357,196.014Z"/><path class="cls-1" d="M93.043,17.894h14.314a3.579,3.579,0,1,0,0-7.158H93.043a3.579,3.579,0,0,0,0,7.158Z"/><path class="cls-1" d="M118.094,17.894h3.578a3.579,3.579,0,1,0,0-7.158h-3.578a3.579,3.579,0,1,0,0,7.158Z"/><path class="cls-1" d="M202.594,15.536a3.578,3.578,0,0,0-5.06,5.061,34.334,34.334,0,0,1,0,48.5,3.578,3.578,0,1,0,5.06,5.06A41.5,41.5,0,0,0,202.594,15.536Z"/><path class="cls-1" d="M187.524,23.681a3.578,3.578,0,0,0-5.06,5.061,23.5,23.5,0,0,1,0,33.2A3.578,3.578,0,1,0,187.524,67a30.659,30.659,0,0,0,0-43.321Z"/><path class="cls-1" d="M17.181,20.6a3.578,3.578,0,0,0-5.06-5.061,41.5,41.5,0,0,0,0,58.619,3.578,3.578,0,0,0,5.06-5.06A34.328,34.328,0,0,1,17.181,20.6Z"/><path class="cls-1" d="M32.251,22.694a3.573,3.573,0,0,0-5.06,0,30.658,30.658,0,0,0,0,43.32,3.578,3.578,0,0,0,5.06-5.06,23.5,23.5,0,0,1,0-33.2A3.58,3.58,0,0,0,32.251,22.694Z"/></g></g></svg>