<svg xmlns="http://www.w3.org/2000/svg" viewBox="0 0 235.281 319.335"><defs><style>.cls-1{fill:#0071bc;}.cls-2{fill:#cc5689;}</style></defs><title>three</title><g id="Layer_2" data-name="Layer 2"><g id="Layer_1-2" data-name="Layer 1"><path class="cls-1" d="M169.207,20.59c1.586,2.2,3.523,4.231,4.7,6.633,5.181,10.584,10.817,21.017,15.032,31.987,6.887,17.925,5.573,35.9-2.6,53.248a209.531,209.531,0,0,1-28.706,44.613c-.3.366-.59.747-1.013,1.283q5.943,7.416,11.866,14.8,27.551,34.21,55.112,68.413c3.675,4.561,7.389,9.091,10.982,13.716a3.3,3.3,0,0,1,.6,2.674c-8.026,20.359-16.145,40.682-24.395,61.376-2.227-2.66-4.325-5.121-6.376-7.62q-36.405-44.382-72.793-88.779c-3.4-4.154-6.722-8.376-10.08-12.567a19.025,19.025,0,0,0,1.716-1.942q6.871-10.213,13.688-20.464,6.3-9.441,12.591-18.891c.667-1.006,1.2-2.1,1.794-3.154l-.483-.367a18.835,18.835,0,0,0-1.836,1.73q-13.773,16.861-27.49,33.767c-1.283,1.587-2.293,3.394-3.429,5.1a6.361,6.361,0,0,0-1.462,1q-23.991,29.186-47.939,58.405Q47.022,291.972,25.366,318.4c-.19.231-.413.435-.843.886-1.949-4.873-3.816-9.521-5.669-14.175C12.715,289.7,6.626,274.262.387,258.887a3.628,3.628,0,0,1,.722-4.248Q27.658,221.8,54.128,188.888q12.3-15.273,24.573-30.568c4.209-5.216,8.4-10.445,12.63-15.645,5.241-6.442,10.548-12.83,15.752-19.3,2.184-2.716,4.177-5.586,6.256-8.386l.11-.2-.108.207a12.342,12.342,0,0,0-2.111,1.431c-2.9,2.972-5.679,6.061-8.6,9.007Q89.7,138.457,76.681,151.4c-.616.614-1.33,1.129-2,1.69-4.249-5.814-8.719-11.481-12.7-17.476C56,126.59,50.556,117.205,46.706,107.043c-6.8-17.964-6.12-35.818,1.724-53.3,3.87-8.623,8.136-17.074,12.438-25.494,1.4-2.745,3.483-5.143,5.253-7.7.322,3.156.665,6.311.962,9.469A65.051,65.051,0,0,0,75.455,55.9c1.879,3.352,4.4,6.347,6.625,9.505a9.646,9.646,0,0,0,.8,1.422q13.855,17.256,27.739,34.489c2.29,2.843,4.618,5.656,7.009,8.58.537-.568.885-.89,1.179-1.255q12-14.888,23.981-29.792c3.547-4.434,6.985-8.956,10.472-13.438a6.493,6.493,0,0,0,1.375-1.3c3.026-5.317,6.595-10.428,8.826-16.066,2.292-5.793,3.406-12.077,4.753-18.208A80.883,80.883,0,0,0,169.207,20.59ZM152.746,164.079l-.506-.385-.69,1.031.349.267Zm.278-1.266c.134.058.3.192.393.154s.127-.249.186-.383c-.134-.059-.3-.193-.393-.155S153.083,162.677,153.024,162.813Z"/><path class="cls-1" d="M82.08,65.409c-2.228-3.158-4.746-6.153-6.625-9.505a65.051,65.051,0,0,1-8.372-25.882c-.3-3.158-.64-6.313-.962-9.469A46.035,46.035,0,0,1,90.042,4a96.665,96.665,0,0,1,55.692.2,46.5,46.5,0,0,1,23.473,16.4,80.883,80.883,0,0,1-1,9.253c-1.347,6.131-2.461,12.415-4.753,18.208-2.231,5.638-5.8,10.749-8.826,16.066a6.493,6.493,0,0,1-1.375,1.3c-10.739-.437-21.48-1.245-32.218-1.217C108.052,64.232,95.066,64.973,82.08,65.409Z"/><path class="cls-1" d="M113.339,114.988c-2.079,2.8-4.072,5.67-6.256,8.386-5.2,6.471-10.511,12.859-15.752,19.3C87.1,147.875,82.91,153.1,78.7,158.32l-4.019-5.229c.669-.561,1.383-1.076,2-1.69q12.99-12.969,25.946-25.973c2.924-2.946,5.7-6.035,8.6-9.007a12.342,12.342,0,0,1,2.111-1.431Z"/><path class="cls-1" d="M118.089,206.147c1.136-1.7,2.146-3.512,3.429-5.1q13.692-16.926,27.49-33.767a18.835,18.835,0,0,1,1.836-1.73l.483.367c-.595,1.053-1.127,2.148-1.794,3.154q-6.27,9.462-12.591,18.891-6.836,10.238-13.688,20.464a19.025,19.025,0,0,1-1.716,1.942Z"/><path class="cls-2" d="M152.746,164.079l-.847.913-.349-.267.69-1.031Z"/><path class="cls-2" d="M153.024,162.812c.059-.135.088-.342.186-.383s.259.1.393.155c-.059.134-.088.342-.186.383S153.158,162.871,153.024,162.812Z"/><path class="cls-2" d="M113.341,114.99l.108-.207-.11.2Z"/></g></g></svg>