<svg xmlns="http://www.w3.org/2000/svg" viewBox="0 0 86.75 186.002"><defs><style>.cls-1{fill:#0071bc;}.cls-2{fill:#cc5689;}</style></defs><title>three2</title><g id="Layer_2" data-name="Layer 2"><g id="Layer_1-2" data-name="Layer 1"><path class="cls-1" d="M15.909,9.572a3.445,3.445,0,0,1,.331.467c.365.745.761,1.479,1.058,2.252a4.622,4.622,0,0,1-.183,3.747,14.754,14.754,0,0,1-2.02,3.14c-.022.026-.042.053-.072.091.279.348.556.7.835,1.041q1.939,2.409,3.879,4.815c.259.321.52.64.773.966a.231.231,0,0,1,.043.188c-.565,1.433-1.137,2.863-1.717,4.32-.157-.187-.3-.361-.449-.537q-2.562-3.123-5.123-6.248c-.24-.292-.474-.59-.71-.884a1.412,1.412,0,0,0,.121-.137q.483-.718.963-1.44.444-.665.886-1.33c.047-.071.085-.148.127-.222l-.034-.026a1.148,1.148,0,0,0-.129.122q-.971,1.187-1.935,2.377c-.091.111-.162.238-.242.358a.471.471,0,0,0-.1.071q-1.687,2.053-3.374,4.11l-3.049,3.72c-.013.016-.029.031-.059.063-.137-.343-.269-.671-.4-1-.432-1.085-.861-2.172-1.3-3.254a.257.257,0,0,1,.051-.3q1.869-2.312,3.732-4.627.866-1.075,1.729-2.152c.3-.367.591-.735.889-1.1.369-.453.743-.9,1.109-1.358.153-.192.294-.394.44-.591l.008-.014-.008.014a.918.918,0,0,0-.148.1c-.2.209-.4.427-.606.634q-.911.918-1.826,1.828c-.043.043-.094.08-.141.119-.3-.409-.613-.808-.893-1.23a10.179,10.179,0,0,1-1.076-2.011,4.745,4.745,0,0,1,.122-3.751c.272-.607.572-1.2.875-1.794a4.989,4.989,0,0,1,.37-.542c.022.222.047.444.067.666a4.583,4.583,0,0,0,.59,1.822,7.775,7.775,0,0,0,.466.669.694.694,0,0,0,.056.1q.975,1.215,1.952,2.427c.162.2.326.4.494.6.038-.04.062-.062.083-.088q.845-1.049,1.688-2.1c.249-.312.491-.63.737-.946a.463.463,0,0,0,.1-.091,9.243,9.243,0,0,0,.622-1.131,8.4,8.4,0,0,0,.334-1.281A5.626,5.626,0,0,0,15.909,9.572Zm-1.158,10.1-.036-.028-.049.073.025.019Zm.019-.09c.01,0,.021.014.028.011s.009-.017.013-.027-.021-.013-.028-.011S14.774,19.573,14.77,19.582Z"/><path class="cls-1" d="M9.777,12.727a7.775,7.775,0,0,1-.466-.669,4.583,4.583,0,0,1-.59-1.822c-.02-.222-.045-.444-.067-.666A3.235,3.235,0,0,1,10.337,8.4a6.8,6.8,0,0,1,3.92.014,3.272,3.272,0,0,1,1.652,1.153,5.626,5.626,0,0,1-.07.652,8.4,8.4,0,0,1-.334,1.281,9.243,9.243,0,0,1-.622,1.131.463.463,0,0,1-.1.091c-.756-.03-1.512-.087-2.268-.085C11.605,12.644,10.691,12.7,9.777,12.727Z"/><path class="cls-1" d="M11.977,16.216c-.146.2-.287.4-.44.591-.366.455-.74.905-1.109,1.358-.3.366-.593.734-.889,1.1L9.256,18.9c.047-.039.1-.076.141-.119q.914-.912,1.826-1.828c.206-.207.4-.425.606-.634a.918.918,0,0,1,.148-.1Z"/><path class="cls-1" d="M12.311,22.632c.08-.12.151-.247.242-.358q.963-1.193,1.935-2.377a1.148,1.148,0,0,1,.129-.122l.034.026c-.042.074-.08.151-.127.222q-.441.666-.886,1.33-.48.72-.963,1.44a1.412,1.412,0,0,1-.121.137Z"/><path class="cls-2" d="M14.751,19.672l-.06.064-.025-.019.049-.073Z"/><path class="cls-2" d="M14.77,19.582c0-.009.006-.024.013-.027s.019.007.028.011-.006.024-.013.027S14.78,19.586,14.77,19.582Z"/><path class="cls-2" d="M11.977,16.216l.008-.014-.008.014Z"/><path class="cls-1" d="M54,186H49c-3.683-2.719-4.518-6.408-4.425-10.846.311-14.787.364-29.58.329-44.371,0-1.637-1.207-3.272-1.854-4.908-.7,1.569-1.993,3.132-2.009,4.708-.154,15.122-.226,30.248-.015,45.369.068,4.863-1.405,8.261-6.026,10.048H31c-3.814-2.557-4.909-6.145-4.836-10.658.212-13.142.075-26.289.075-39.434v-9.449a6.637,6.637,0,0,0-1.123-.405q-5.49-.034-10.98-.048c-6.41-.018-6.728-.416-4.946-6.476,5.848-19.891,11.742-39.77,17.5-59.685.435-1.5-.024-3.263-.067-4.9-1.051,1.376-2.6,2.6-3.072,4.153-3.5,11.589-6.6,23.306-10.293,34.831-.847,2.638-3.207,6.079-5.468,6.61C5.594,101.055,2.629,98.313,0,97V92C4.309,78.485,8.808,65.025,12.863,51.431,15.849,41.42,23.783,34.724,34.2,34.439c5.15-.142,10.307-.041,15.461-.026,12.354.035,19.724,5.959,23.224,17.68C76.985,65.811,81.606,79.373,86,93v4c-6.36,6.493-11.179,5.325-13.754-3.377C68.81,82.017,65.423,70.394,62.007,58.78a10.831,10.831,0,0,0-.981-2.8A2.36,2.36,0,0,0,59.192,54.9a2.219,2.219,0,0,0-1.121,1.773,10.9,10.9,0,0,0,.745,2.865q8.656,30.386,17.3,60.772c1.507,5.307,1.232,5.647-4.388,5.7-3.942.035-7.885.007-12.066.007-.095,2.152-.217,3.786-.231,5.422-.122,14.805-.4,29.613-.232,44.416C59.254,180.454,57.9,183.724,54,186Z"/><path class="cls-1" d="M58.309,15.249a15.207,15.207,0,0,1-30.412.3,15.208,15.208,0,1,1,30.412-.3Z"/><rect class="cls-1" x="72.875" y="9.599" width="6.75" height="21"/><rect class="cls-1" x="72.875" y="9.974" width="6.75" height="21" transform="translate(96.724 -55.776) rotate(90)"/></g></g></svg>