<svg xmlns="http://www.w3.org/2000/svg" viewBox="0 0 255.845 224.461"><defs><style>.cls-1{fill:#fff;}.cls-2{fill:#0071bc;}</style></defs><title>two</title><g id="Layer_2" data-name="Layer 2"><g id="Layer_1-2" data-name="Layer 1"><g id="eJL5cY.tif"><path class="cls-1" d="M0,214.483V0H255.845V224.461h-6.4c.643-.35,1.3-.671,1.927-1.053a7.666,7.666,0,0,0,3.991-7.732,7.4,7.4,0,0,0-5.476-6.722,14.532,14.532,0,0,0-4.174-.44Q128,208.484,10.28,208.431C5.394,208.425,1.921,209.9,0,214.483ZM127.977.959q-43.146,0-86.291,0C26.01.962,15.966,11,15.965,26.653q0,70.206,0,140.411c0,15.342,10.109,25.464,25.444,25.466q86.417.006,172.833,0c14.984,0,25.217-10.219,25.22-25.2q.012-70.705,0-141.409C239.46,11.27,229.154.964,214.519.96Q171.248.95,127.977.959Z"/><path class="cls-2" d="M0,214.483c1.921-4.581,5.394-6.058,10.28-6.052q117.716.139,235.431.083a14.532,14.532,0,0,1,4.174.44,7.4,7.4,0,0,1,5.476,6.722,7.666,7.666,0,0,1-3.991,7.732c-.623.382-1.284.7-1.927,1.053H5.987A10.672,10.672,0,0,1,0,218.474Z"/><path class="cls-1" d="M0,218.474a10.672,10.672,0,0,0,5.987,5.987H0Z"/><path class="cls-2" d="M127.977.959q43.272,0,86.542,0c14.635,0,24.941,10.31,24.943,24.963q.012,70.7,0,141.409c0,14.979-10.236,25.2-25.22,25.2q-86.416.006-172.833,0c-15.335,0-25.443-10.124-25.444-25.466q0-70.2,0-140.411C15.966,11,26.01.962,41.686.96Q84.831.956,127.977.959Zm.009,15.965q-43.387,0-86.775,0c-6.272,0-9.28,3.034-9.281,9.354q0,70.568,0,141.135,0,9.144,9.233,9.151,86.526,0,173.052,0c6.258,0,9.284-3.052,9.284-9.358q0-70.441,0-140.885c0-6.433-3-9.4-9.486-9.4Q171,16.922,127.986,16.924Z"/><path class="cls-1" d="M127.986,16.924q43.014,0,86.028,0c6.491,0,9.486,2.965,9.486,9.4q0,70.443,0,140.885c0,6.306-3.026,9.358-9.284,9.358q-86.526,0-173.052,0-9.224,0-9.233-9.151-.006-70.567,0-141.135c0-6.32,3.009-9.353,9.281-9.354Q84.6,16.92,127.986,16.924Zm-.226,15.965q-11.847,0-23.693,0a7.914,7.914,0,0,0-7.237,4.056q-23.532,39.2-47.054,78.4c-2.932,4.886-2.622,8.1,1.485,11.972,25.035,23.607,54.685,33.992,88.942,30.319,24.991-2.68,46.409-13.255,64.409-30.763,3.39-3.3,3.862-6.789,1.461-10.8q-23.626-39.433-47.288-78.845a8.4,8.4,0,0,0-7.831-4.362C143.223,32.926,135.491,32.889,127.76,32.889Z"/><path class="cls-2" d="M127.76,32.889c7.731,0,15.463.037,23.194-.017a8.4,8.4,0,0,1,7.831,4.362q23.631,39.429,47.288,78.845c2.4,4.007,1.929,7.5-1.461,10.8-18,17.508-39.418,28.083-64.409,30.763-34.257,3.673-63.907-6.712-88.942-30.319-4.107-3.872-4.417-7.086-1.485-11.972q23.526-39.2,47.054-78.4a7.914,7.914,0,0,1,7.237-4.056Q115.914,32.9,127.76,32.889Zm61.463,86.49a6.01,6.01,0,0,0-.273-.818Q168.462,84.39,147.9,50.259a3.744,3.744,0,0,0-2.776-1.347c-11.548-.091-23.1-.028-34.646-.1a3.153,3.153,0,0,0-3.147,1.753Q87.374,83.9,67.285,117.146c-1.038,1.715-.911,2.6.663,3.824q45.087,35.019,97.879,13.374A82.825,82.825,0,0,0,189.223,119.379Z"/><path class="cls-1" d="M189.223,119.379a82.825,82.825,0,0,1-23.4,14.965Q113.09,155.907,67.948,120.97c-1.574-1.222-1.7-2.109-.663-3.824Q87.4,83.911,107.333,50.568a3.153,3.153,0,0,1,3.147-1.753c11.548.069,23.1.006,34.646.1a3.744,3.744,0,0,1,2.776,1.347q20.608,34.1,41.048,68.3A6.01,6.01,0,0,1,189.223,119.379Zm-63.42,9.277c15.643-.006,28.658-5.248,38.7-14.808,3.816-3.633,4.24-8.509,1.036-11.922-3.274-3.488-8.02-3.381-11.949.27-15.123,14.049-36.608,14.035-51.791-.034-3.913-3.625-8.708-3.705-11.951-.2-3.126,3.38-2.763,8.228.931,11.749C101.124,123.57,113.505,128.409,125.8,128.656Zm1.862-31.892a30.62,30.62,0,0,0,20.966-8.315c3.722-3.449,4.125-8.3,1.045-11.732-3.062-3.408-7.939-3.453-11.756-.109-6.382,5.594-14,5.58-20.452-.035-3.737-3.255-8.511-3.254-11.587,0-3.17,3.356-2.878,8.3.777,11.74A30.646,30.646,0,0,0,127.665,96.764Z"/><path class="cls-2" d="M125.8,128.656c-12.3-.247-24.679-5.086-35.022-14.943-3.694-3.521-4.057-8.369-.931-11.749,3.243-3.507,8.038-3.427,11.951.2,15.183,14.069,36.668,14.083,51.791.034,3.929-3.651,8.675-3.758,11.949-.27,3.2,3.413,2.78,8.289-1.036,11.922C154.461,123.408,141.446,128.65,125.8,128.656Z"/><path class="cls-2" d="M127.665,96.764a30.646,30.646,0,0,1-21.007-8.449c-3.655-3.441-3.947-8.384-.777-11.74,3.076-3.256,7.85-3.257,11.587,0,6.447,5.615,14.07,5.629,20.452.035,3.817-3.344,8.694-3.3,11.756.109,3.08,3.429,2.677,8.283-1.045,11.732A30.62,30.62,0,0,1,127.665,96.764Z"/></g></g></g></svg>