<svg xmlns="http://www.w3.org/2000/svg" viewBox="0 0 165.025 165.025"><defs><style>.cls-1{fill:#fff;}</style></defs><title>user</title><g id="Layer_2" data-name="Layer 2"><g id="Layer_1-2" data-name="Layer 1"><path class="cls-1" d="M165.025,82.512A82.513,82.513,0,1,0,26.782,143.3l-.078.069,2.676,2.256c.174.147.363.267.538.411,1.422,1.179,2.9,2.3,4.4,3.382.486.351.972.7,1.467,1.044q2.4,1.656,4.927,3.144c.366.216.735.426,1.1.636,1.84,1.047,3.718,2.035,5.641,2.941.141.066.285.126.426.192a81.782,81.782,0,0,0,19.956,6.316l.552.1c2.173.375,4.369.675,6.592.876.27.024.54.039.813.063,2.215.183,4.453.3,6.721.3,2.248,0,4.465-.117,6.667-.294.28-.024.559-.039.838-.063q3.308-.3,6.535-.861c.186-.033.375-.066.561-.1a81.779,81.779,0,0,0,19.674-6.166c.228-.1.459-.2.687-.312q2.776-1.305,5.434-2.809.662-.373,1.317-.759c1.614-.951,3.2-1.944,4.743-3,.556-.378,1.1-.777,1.648-1.173,1.317-.949,2.61-1.927,3.867-2.95.279-.225.579-.42.852-.651l2.746-2.292-.081-.069A82.3,82.3,0,0,0,165.025,82.512ZM8.279,57.54A76.407,76.407,0,0,1,57.8,7.727c54.541-17.367,104.952,23.1,104.952,75.126a79.013,79.013,0,0,1-26.68,59.215,23.332,23.332,0,0,0-2.774-1.668l-26.431-13.214a6.687,6.687,0,0,1-3.7-5.981V109.718c.553-.683,1.137-1.456,1.741-2.305a57.512,57.512,0,0,0,7.38-14.452,10.239,10.239,0,0,0,5.882-9.279V72.218l-3-7.108V51.422a24.76,24.76,0,0,0-5.781-18c-5.659-6.46-14.817-9.73-27.224-9.73S60.6,26.958,54.94,33.415a24.765,24.765,0,0,0-5.781,18V84.2a9.852,9.852,0,0,0,3.628,7.638,50.871,50.871,0,0,0,8.374,17.3v11.807a6.691,6.691,0,0,1-3.488,5.875L32.99,140.282a22.555,22.555,0,0,0-2.336,1.479C8.83,122.149-2.085,90.636,8.279,57.54ZM130.69,144.684q-1.653,1.2-3.362,2.316c-.523.34-1.042.681-1.575,1.012q-2.23,1.38-4.543,2.615c-.341.179-.684.349-1.027.526a80.225,80.225,0,0,1-10.99,4.65c-.133.044-.265.092-.4.136q-2.964.982-6,1.739l-.019,0c-2.042.5-4.109.923-6.188,1.267-.057.009-.114.022-.17.031-1.957.319-3.929.549-5.908.722-.35.031-.7.053-1.052.079-1.957.148-3.923.242-5.9.242-2,0-3.989-.1-5.97-.246-.344-.025-.687-.047-1.027-.078-2-.177-3.986-.413-5.955-.734l-.265-.048a80.017,80.017,0,0,1-12.256-3.059l-.372-.126q-2.973-1.011-5.867-2.247l-.041-.019c-1.821-.784-3.607-1.654-5.372-2.571-.23-.119-.463-.233-.69-.356-1.61-.86-3.185-1.789-4.739-2.76q-.69-.433-1.37-.879c-1.431-.935-2.842-1.909-4.216-2.939-.142-.107-.277-.221-.419-.328l.3-.17,24.912-13.589a13.326,13.326,0,0,0,6.948-11.7l0-11.056-.623-.752a45.223,45.223,0,0,1-8.124-16.829l-.247-1.072-.923-.6A4.487,4.487,0,0,1,55.16,84.1V72.212s-.972-2.7.108-3.67l-.108-.894V51.229l-.028-.4a18.582,18.582,0,0,1,4.306-13.449c4.461-5.083,12.1-7.665,22.712-7.665,10.568,0,18.187,2.56,22.66,7.607a18.887,18.887,0,0,1,4.358,13.513V67.654l.589.894a16.648,16.648,0,0,1,2.412,3.67v11.4a4.713,4.713,0,0,1-3.332,4.443l-1.4.432-.451,1.4a52.2,52.2,0,0,1-7.042,14.2c-.739,1.043-1.458,1.969-2.076,2.677l-.7.8v10.874a13.246,13.246,0,0,0,7.367,11.916l26.677,13.338c.17.085.337.173.5.261C131.377,144.2,131.031,144.439,130.69,144.684Z"/></g></g></svg>