<svg xmlns="http://www.w3.org/2000/svg" viewBox="0 0 190.638 175"><defs><style>.cls-1{fill:#fff;}</style></defs><title>web</title><g id="Layer_2" data-name="Layer 2"><g id="Layer_1-2" data-name="Layer 1"><path class="cls-1" d="M174.751,0H15.887A15.887,15.887,0,0,0,0,15.887V127.464a15.887,15.887,0,0,0,15.887,15.887H71.22c-.17,6.324-1.382,16.432-5.894,21.179a7.745,7.745,0,0,1-5.861,2.557,4.061,4.061,0,0,0-4.077,3.817,3.953,3.953,0,0,0,3.954,4.1h71.067a4.049,4.049,0,0,0,4.1-3.9,3.954,3.954,0,0,0-3.956-4.014,7.763,7.763,0,0,1-5.984-2.558c-4.512-4.747-5.724-14.855-5.894-21.179h56.079a15.886,15.886,0,0,0,15.886-15.887V15.928A15.924,15.924,0,0,0,174.751,0ZM73.806,166.809c4.8-7.354,5.724-17.943,5.844-23.83h31.705c.12,5.888,1.048,16.476,5.844,23.83Zm101.07-31.649H16.135a7.944,7.944,0,0,1-7.944-7.944V111.33H182.819v15.886A7.944,7.944,0,0,1,174.876,135.16Zm7.944-31.649H8.191V16.135a7.944,7.944,0,0,1,7.944-7.944H174.876a7.944,7.944,0,0,1,7.943,7.944v87.376Z"/><circle class="cls-1" cx="95.502" cy="123.286" r="7.943"/><path class="cls-1" d="M95.5,24a7.849,7.849,0,0,0-6.785,4.066c-42.783.952-59.3,23.033-60.6,44.728a7.851,7.851,0,0,0-4.1,6.809,7.943,7.943,0,1,0,15.886,0,7.829,7.829,0,0,0-3.852-6.641c.835-11.152,7.868-35.955,52.8-36.946A7.83,7.83,0,0,0,95.5,39.882,7.944,7.944,0,1,0,95.5,24Z"/><path class="cls-1" d="M165.32,64.415,125.6,32.642a3.973,3.973,0,0,0-6.454,3.1V87.289a4.051,4.051,0,0,0,.961,2.683,3.98,3.98,0,0,0,6.113-.114l14.692-18.369h21.806a4.075,4.075,0,0,0,3.43-1.781A3.978,3.978,0,0,0,165.32,64.415Zm-26.065-.745a3.974,3.974,0,0,0-3.1,1.49L127.34,76.179V44.134L151.764,63.67Z"/></g></g></svg>